<?xml version="1.0" encoding="UTF-8"?>
<svg width="842px" height="88px" viewBox="0 0 842 88" version="1.1" xmlns="http://www.w3.org/2000/svg" xmlns:xlink="http://www.w3.org/1999/xlink">
    <!-- Generator: Sketch 48.2 (47327) - http://www.bohemiancoding.com/sketch -->
    <title>five-houses</title>
    <desc>Created with Sketch.</desc>
    <defs></defs>
    <g id="Page-1" stroke="none" stroke-width="1" fill="none" fill-rule="evenodd">
        <g id="five-houses" fill="#F7C752" fill-rule="nonzero">
            <g id="5of5">
                <g id="terraced-houses" transform="translate(343.037037, 0.000000)">
                    <path d="M33.9138889,23.3888889 L22.2194444,23.3888889 C21.1432307,23.3888889 20.2703704,24.2617492 20.2703704,25.337963 L20.2703704,37.0324074 C20.2703704,38.1086211 21.1432307,38.9814815 22.2194444,38.9814815 L33.9138889,38.9814815 C34.9901026,38.9814815 35.862963,38.1086211 35.862963,37.0324074 L35.862963,25.337963 C35.862963,24.2614244 34.9904275,23.3888889 33.9138889,23.3888889 Z M31.9648148,35.0833333 L24.1685185,35.0833333 L24.1685185,27.287037 L31.9648148,27.287037 L31.9648148,35.0833333 Z" id="Shape"></path>
                    <path d="M33.9138889,43.6592593 L22.2194444,43.6592593 C21.1432307,43.6592593 20.2703704,44.5321196 20.2703704,45.6083333 L20.2703704,57.3027778 C20.2703704,58.3789915 21.1432307,59.2518519 22.2194444,59.2518519 L33.9138889,59.2518519 C34.9901026,59.2518519 35.862963,58.3789915 35.862963,57.3027778 L35.862963,45.6083333 C35.862963,44.5317948 34.9904275,43.6592593 33.9138889,43.6592593 Z M31.9648148,55.3537037 L24.1685185,55.3537037 L24.1685185,47.5574074 L31.9648148,47.5574074 L31.9648148,55.3537037 Z" id="Shape"></path>
                    <path d="M83.8101852,23.3888889 L72.1157407,23.3888889 C71.039527,23.3888889 70.1666667,24.2617492 70.1666667,25.337963 L70.1666667,37.0324074 C70.1666667,38.1086211 71.039527,38.9814815 72.1157407,38.9814815 L83.8101852,38.9814815 C84.8863989,38.9814815 85.7592593,38.1086211 85.7592593,37.0324074 L85.7592593,25.337963 C85.7592593,24.2614244 84.8867238,23.3888889 83.8101852,23.3888889 Z M81.8611111,35.0833333 L74.0648148,35.0833333 L74.0648148,27.287037 L81.8611111,27.287037 L81.8611111,35.0833333 Z" id="Shape"></path>
                    <path d="M83.8101852,43.6592593 L72.1157407,43.6592593 C71.039527,43.6592593 70.1666667,44.5321196 70.1666667,45.6083333 L70.1666667,57.3027778 C70.1666667,58.3789915 71.039527,59.2518519 72.1157407,59.2518519 L83.8101852,59.2518519 C84.8863989,59.2518519 85.7592593,58.3789915 85.7592593,57.3027778 L85.7592593,45.6083333 C85.7592593,44.5317948 84.8867238,43.6592593 83.8101852,43.6592593 Z M81.8611111,55.3537037 L74.0648148,55.3537037 L74.0648148,47.5574074 L81.8611111,47.5574074 L81.8611111,55.3537037 Z" id="Shape"></path>
                    <path d="M133.706481,23.3888889 L122.012037,23.3888889 C120.935823,23.3888889 120.062963,24.2617492 120.062963,25.337963 L120.062963,37.0324074 C120.062963,38.1086211 120.935823,38.9814815 122.012037,38.9814815 L133.706481,38.9814815 C134.782695,38.9814815 135.655556,38.1086211 135.655556,37.0324074 L135.655556,25.337963 C135.655556,24.2614244 134.782695,23.3888889 133.706481,23.3888889 Z M131.757407,35.0833333 L123.961111,35.0833333 L123.961111,27.287037 L131.757407,27.287037 L131.757407,35.0833333 Z" id="Shape"></path>
                    <path d="M133.706481,43.6592593 L122.012037,43.6592593 C120.935823,43.6592593 120.062963,44.5321196 120.062963,45.6083333 L120.062963,57.3027778 C120.062963,58.3789915 120.935823,59.2518519 122.012037,59.2518519 L133.706481,59.2518519 C134.782695,59.2518519 135.655556,58.3789915 135.655556,57.3027778 L135.655556,45.6083333 C135.655556,44.5317948 134.782695,43.6592593 133.706481,43.6592593 Z M131.757407,55.3537037 L123.961111,55.3537037 L123.961111,47.5574074 L131.757407,47.5574074 L131.757407,55.3537037 Z" id="Shape"></path>
                    <path d="M154.002082,83.4662451 L149.287062,83.4662451 L149.287062,28.5713489 L154.002082,28.5713489 C155.064365,28.5713489 155.925926,27.7087607 155.925926,26.6452122 C155.925926,25.5816637 155.064365,24.7190755 154.002082,24.7190755 L149.287062,24.7190755 L149.287062,21.288626 C149.287062,20.6504327 148.971231,20.0536513 148.444098,19.6950689 L143.19489,16.1269006 L143.19489,1.92645773 C143.19489,0.862909246 142.333329,0.000321022785 141.271047,0.000321022785 L132.29311,0.000321022785 C131.230827,0.000321022785 130.369266,0.862909246 130.369266,1.92645773 L130.369266,7.40824281 L128.933758,6.43233354 C128.281254,5.98900108 127.424823,5.98900108 126.77232,6.43233354 L107.26198,19.6950689 C106.734526,20.0536513 106.419016,20.6504327 106.419016,21.288626 L106.419016,24.7190755 L99.350814,24.7190755 L99.350814,21.288626 C99.350814,20.6504327 99.034983,20.0536513 98.5078498,19.6950689 L93.0149555,15.9609318 L93.0149555,1.92613671 C93.0149555,0.862588223 92.1533942,0 91.0911118,0 L82.1131747,0 C81.0508924,0 80.189331,0.862588223 80.189331,1.92613671 L80.189331,7.24227403 L78.9978305,6.43233354 C78.3453269,5.98900108 77.4888958,5.98900108 76.8363922,6.43233354 L57.3260523,19.6950689 C56.7985985,20.0536513 56.4830881,20.6504327 56.4830881,21.288626 L56.4830881,24.7190755 L49.4148865,24.7190755 L49.4148865,21.288626 C49.4148865,20.6504327 49.0990555,20.0536513 48.5719223,19.6950689 L42.8343792,15.7952841 L42.8343792,1.92645773 C42.8343792,0.862909246 41.9728179,0.000321022785 40.9105356,0.000321022785 L31.9325984,0.000321022785 C30.8703161,0.000321022785 30.0087548,0.862909246 30.0087548,1.92645773 L30.0087548,7.07662627 L29.0609411,6.43233354 C28.4084375,5.98900108 27.5520064,5.98900108 26.8995028,6.43233354 L7.38916288,19.6950689 C6.86170908,20.0536513 6.54619871,20.6504327 6.54619871,21.288626 L6.54619871,24.7190755 L1.92384367,24.7190755 C0.861561322,24.7190755 0,25.5816637 0,26.6452122 C0,27.7087607 0.861561322,28.5713489 1.92384367,28.5713489 L6.54651935,28.5713489 L6.54651935,83.4662451 L1.92384367,83.4662451 C0.861240681,83.4662451 0,84.3288333 0,85.3923818 C0,86.4559303 0.861240681,87.3185185 1.92384367,87.3185185 L154.002082,87.3185185 C155.064365,87.3185185 155.925926,86.4559303 155.925926,85.3923818 C155.925926,84.3288333 155.064685,83.4662451 154.002082,83.4662451 Z M134.216953,3.85259444 L139.347203,3.85259444 L139.347203,13.511207 L134.216953,10.0236154 L134.216953,3.85259444 Z M106.419016,28.5713489 L106.419016,83.4662451 L99.350814,83.4662451 L99.350814,28.5713489 L106.419016,28.5713489 Z M84.0366977,3.85259444 L89.1669475,3.85259444 L89.1669475,13.3455592 L84.0366977,9.85796768 L84.0366977,3.85259444 Z M56.4827675,28.5713489 L56.4827675,83.4662451 L49.4145658,83.4662451 L49.4145658,28.5713489 L56.4827675,28.5713489 Z M33.8564421,3.85259444 L38.9866919,3.85259444 L38.9866919,13.1795904 L33.8564421,9.6919989 L33.8564421,3.85259444 Z M31.826787,83.4662451 L24.1314124,83.4662451 L24.1314124,69.3412426 L31.826787,69.3412426 L31.826787,83.4662451 Z M35.6744744,83.4662451 L35.6744744,67.4151059 C35.6744744,66.3515574 34.8129131,65.4889691 33.7506307,65.4889691 L22.2075687,65.4889691 C21.1452864,65.4889691 20.2837251,66.3515574 20.2837251,67.4151059 L20.2837251,83.4662451 L10.3942067,83.4662451 L10.3942067,22.3091574 L27.9803823,10.3539479 L45.5668785,22.3091574 L45.5668785,83.4662451 L35.6744744,83.4662451 Z M81.7633558,83.4662451 L74.0679811,83.4662451 L74.0679811,69.3412426 L81.7633558,69.3412426 L81.7633558,83.4662451 Z M85.6110431,83.4662451 L85.6110431,67.4151059 C85.6110431,66.3515574 84.7494818,65.4889691 83.6871995,65.4889691 L72.1441375,65.4889691 C71.0818551,65.4889691 70.2202938,66.3515574 70.2202938,67.4151059 L70.2202938,83.4662451 L60.3304548,83.4662451 L60.3304548,22.3091574 L77.916951,10.3539479 L95.5034473,22.3091574 L95.5034473,83.4662451 L85.6110431,83.4662451 Z M131.699604,83.4662451 L124.004229,83.4662451 L124.004229,69.3412426 L131.699604,69.3412426 L131.699604,83.4662451 Z M135.547291,83.4662451 L135.547291,67.4151059 C135.547291,66.3515574 134.68573,65.4889691 133.623448,65.4889691 L122.080386,65.4889691 C121.018103,65.4889691 120.156542,66.3515574 120.156542,67.4151059 L120.156542,83.4662451 L110.266703,83.4662451 L110.266703,22.3091574 L127.853199,10.3539479 L145.439695,22.3091574 L145.439695,83.4662451 L135.547291,83.4662451 Z" id="Shape"></path>
                </g>
                <g id="terraced-houses" transform="translate(514.555556, 0.000000)">
                    <path d="M33.9138889,23.3888889 L22.2194444,23.3888889 C21.1432307,23.3888889 20.2703704,24.2617492 20.2703704,25.337963 L20.2703704,37.0324074 C20.2703704,38.1086211 21.1432307,38.9814815 22.2194444,38.9814815 L33.9138889,38.9814815 C34.9901026,38.9814815 35.862963,38.1086211 35.862963,37.0324074 L35.862963,25.337963 C35.862963,24.2614244 34.9904275,23.3888889 33.9138889,23.3888889 Z M31.9648148,35.0833333 L24.1685185,35.0833333 L24.1685185,27.287037 L31.9648148,27.287037 L31.9648148,35.0833333 Z" id="Shape"></path>
                    <path d="M33.9138889,43.6592593 L22.2194444,43.6592593 C21.1432307,43.6592593 20.2703704,44.5321196 20.2703704,45.6083333 L20.2703704,57.3027778 C20.2703704,58.3789915 21.1432307,59.2518519 22.2194444,59.2518519 L33.9138889,59.2518519 C34.9901026,59.2518519 35.862963,58.3789915 35.862963,57.3027778 L35.862963,45.6083333 C35.862963,44.5317948 34.9904275,43.6592593 33.9138889,43.6592593 Z M31.9648148,55.3537037 L24.1685185,55.3537037 L24.1685185,47.5574074 L31.9648148,47.5574074 L31.9648148,55.3537037 Z" id="Shape"></path>
                    <path d="M83.8101852,23.3888889 L72.1157407,23.3888889 C71.039527,23.3888889 70.1666667,24.2617492 70.1666667,25.337963 L70.1666667,37.0324074 C70.1666667,38.1086211 71.039527,38.9814815 72.1157407,38.9814815 L83.8101852,38.9814815 C84.8863989,38.9814815 85.7592593,38.1086211 85.7592593,37.0324074 L85.7592593,25.337963 C85.7592593,24.2614244 84.8867238,23.3888889 83.8101852,23.3888889 Z M81.8611111,35.0833333 L74.0648148,35.0833333 L74.0648148,27.287037 L81.8611111,27.287037 L81.8611111,35.0833333 Z" id="Shape"></path>
                    <path d="M83.8101852,43.6592593 L72.1157407,43.6592593 C71.039527,43.6592593 70.1666667,44.5321196 70.1666667,45.6083333 L70.1666667,57.3027778 C70.1666667,58.3789915 71.039527,59.2518519 72.1157407,59.2518519 L83.8101852,59.2518519 C84.8863989,59.2518519 85.7592593,58.3789915 85.7592593,57.3027778 L85.7592593,45.6083333 C85.7592593,44.5317948 84.8867238,43.6592593 83.8101852,43.6592593 Z M81.8611111,55.3537037 L74.0648148,55.3537037 L74.0648148,47.5574074 L81.8611111,47.5574074 L81.8611111,55.3537037 Z" id="Shape"></path>
                    <path d="M133.706481,23.3888889 L122.012037,23.3888889 C120.935823,23.3888889 120.062963,24.2617492 120.062963,25.337963 L120.062963,37.0324074 C120.062963,38.1086211 120.935823,38.9814815 122.012037,38.9814815 L133.706481,38.9814815 C134.782695,38.9814815 135.655556,38.1086211 135.655556,37.0324074 L135.655556,25.337963 C135.655556,24.2614244 134.782695,23.3888889 133.706481,23.3888889 Z M131.757407,35.0833333 L123.961111,35.0833333 L123.961111,27.287037 L131.757407,27.287037 L131.757407,35.0833333 Z" id="Shape"></path>
                    <path d="M133.706481,43.6592593 L122.012037,43.6592593 C120.935823,43.6592593 120.062963,44.5321196 120.062963,45.6083333 L120.062963,57.3027778 C120.062963,58.3789915 120.935823,59.2518519 122.012037,59.2518519 L133.706481,59.2518519 C134.782695,59.2518519 135.655556,58.3789915 135.655556,57.3027778 L135.655556,45.6083333 C135.655556,44.5317948 134.782695,43.6592593 133.706481,43.6592593 Z M131.757407,55.3537037 L123.961111,55.3537037 L123.961111,47.5574074 L131.757407,47.5574074 L131.757407,55.3537037 Z" id="Shape"></path>
                    <path d="M154.002082,83.4662451 L149.287062,83.4662451 L149.287062,28.5713489 L154.002082,28.5713489 C155.064365,28.5713489 155.925926,27.7087607 155.925926,26.6452122 C155.925926,25.5816637 155.064365,24.7190755 154.002082,24.7190755 L149.287062,24.7190755 L149.287062,21.288626 C149.287062,20.6504327 148.971231,20.0536513 148.444098,19.6950689 L143.19489,16.1269006 L143.19489,1.92645773 C143.19489,0.862909246 142.333329,0.000321022785 141.271047,0.000321022785 L132.29311,0.000321022785 C131.230827,0.000321022785 130.369266,0.862909246 130.369266,1.92645773 L130.369266,7.40824281 L128.933758,6.43233354 C128.281254,5.98900108 127.424823,5.98900108 126.77232,6.43233354 L107.26198,19.6950689 C106.734526,20.0536513 106.419016,20.6504327 106.419016,21.288626 L106.419016,24.7190755 L99.350814,24.7190755 L99.350814,21.288626 C99.350814,20.6504327 99.034983,20.0536513 98.5078498,19.6950689 L93.0149555,15.9609318 L93.0149555,1.92613671 C93.0149555,0.862588223 92.1533942,0 91.0911118,0 L82.1131747,0 C81.0508924,0 80.189331,0.862588223 80.189331,1.92613671 L80.189331,7.24227403 L78.9978305,6.43233354 C78.3453269,5.98900108 77.4888958,5.98900108 76.8363922,6.43233354 L57.3260523,19.6950689 C56.7985985,20.0536513 56.4830881,20.6504327 56.4830881,21.288626 L56.4830881,24.7190755 L49.4148865,24.7190755 L49.4148865,21.288626 C49.4148865,20.6504327 49.0990555,20.0536513 48.5719223,19.6950689 L42.8343792,15.7952841 L42.8343792,1.92645773 C42.8343792,0.862909246 41.9728179,0.000321022785 40.9105356,0.000321022785 L31.9325984,0.000321022785 C30.8703161,0.000321022785 30.0087548,0.862909246 30.0087548,1.92645773 L30.0087548,7.07662627 L29.0609411,6.43233354 C28.4084375,5.98900108 27.5520064,5.98900108 26.8995028,6.43233354 L7.38916288,19.6950689 C6.86170908,20.0536513 6.54619871,20.6504327 6.54619871,21.288626 L6.54619871,24.7190755 L1.92384367,24.7190755 C0.861561322,24.7190755 0,25.5816637 0,26.6452122 C0,27.7087607 0.861561322,28.5713489 1.92384367,28.5713489 L6.54651935,28.5713489 L6.54651935,83.4662451 L1.92384367,83.4662451 C0.861240681,83.4662451 0,84.3288333 0,85.3923818 C0,86.4559303 0.861240681,87.3185185 1.92384367,87.3185185 L154.002082,87.3185185 C155.064365,87.3185185 155.925926,86.4559303 155.925926,85.3923818 C155.925926,84.3288333 155.064685,83.4662451 154.002082,83.4662451 Z M134.216953,3.85259444 L139.347203,3.85259444 L139.347203,13.511207 L134.216953,10.0236154 L134.216953,3.85259444 Z M106.419016,28.5713489 L106.419016,83.4662451 L99.350814,83.4662451 L99.350814,28.5713489 L106.419016,28.5713489 Z M84.0366977,3.85259444 L89.1669475,3.85259444 L89.1669475,13.3455592 L84.0366977,9.85796768 L84.0366977,3.85259444 Z M56.4827675,28.5713489 L56.4827675,83.4662451 L49.4145658,83.4662451 L49.4145658,28.5713489 L56.4827675,28.5713489 Z M33.8564421,3.85259444 L38.9866919,3.85259444 L38.9866919,13.1795904 L33.8564421,9.6919989 L33.8564421,3.85259444 Z M31.826787,83.4662451 L24.1314124,83.4662451 L24.1314124,69.3412426 L31.826787,69.3412426 L31.826787,83.4662451 Z M35.6744744,83.4662451 L35.6744744,67.4151059 C35.6744744,66.3515574 34.8129131,65.4889691 33.7506307,65.4889691 L22.2075687,65.4889691 C21.1452864,65.4889691 20.2837251,66.3515574 20.2837251,67.4151059 L20.2837251,83.4662451 L10.3942067,83.4662451 L10.3942067,22.3091574 L27.9803823,10.3539479 L45.5668785,22.3091574 L45.5668785,83.4662451 L35.6744744,83.4662451 Z M81.7633558,83.4662451 L74.0679811,83.4662451 L74.0679811,69.3412426 L81.7633558,69.3412426 L81.7633558,83.4662451 Z M85.6110431,83.4662451 L85.6110431,67.4151059 C85.6110431,66.3515574 84.7494818,65.4889691 83.6871995,65.4889691 L72.1441375,65.4889691 C71.0818551,65.4889691 70.2202938,66.3515574 70.2202938,67.4151059 L70.2202938,83.4662451 L60.3304548,83.4662451 L60.3304548,22.3091574 L77.916951,10.3539479 L95.5034473,22.3091574 L95.5034473,83.4662451 L85.6110431,83.4662451 Z M131.699604,83.4662451 L124.004229,83.4662451 L124.004229,69.3412426 L131.699604,69.3412426 L131.699604,83.4662451 Z M135.547291,83.4662451 L135.547291,67.4151059 C135.547291,66.3515574 134.68573,65.4889691 133.623448,65.4889691 L122.080386,65.4889691 C121.018103,65.4889691 120.156542,66.3515574 120.156542,67.4151059 L120.156542,83.4662451 L110.266703,83.4662451 L110.266703,22.3091574 L127.853199,10.3539479 L145.439695,22.3091574 L145.439695,83.4662451 L135.547291,83.4662451 Z" id="Shape"></path>
                </g>
                <g id="terraced-houses" transform="translate(686.074074, 0.000000)">
                    <path d="M33.9138889,23.3888889 L22.2194444,23.3888889 C21.1432307,23.3888889 20.2703704,24.2617492 20.2703704,25.337963 L20.2703704,37.0324074 C20.2703704,38.1086211 21.1432307,38.9814815 22.2194444,38.9814815 L33.9138889,38.9814815 C34.9901026,38.9814815 35.862963,38.1086211 35.862963,37.0324074 L35.862963,25.337963 C35.862963,24.2614244 34.9904275,23.3888889 33.9138889,23.3888889 Z M31.9648148,35.0833333 L24.1685185,35.0833333 L24.1685185,27.287037 L31.9648148,27.287037 L31.9648148,35.0833333 Z" id="Shape"></path>
                    <path d="M33.9138889,43.6592593 L22.2194444,43.6592593 C21.1432307,43.6592593 20.2703704,44.5321196 20.2703704,45.6083333 L20.2703704,57.3027778 C20.2703704,58.3789915 21.1432307,59.2518519 22.2194444,59.2518519 L33.9138889,59.2518519 C34.9901026,59.2518519 35.862963,58.3789915 35.862963,57.3027778 L35.862963,45.6083333 C35.862963,44.5317948 34.9904275,43.6592593 33.9138889,43.6592593 Z M31.9648148,55.3537037 L24.1685185,55.3537037 L24.1685185,47.5574074 L31.9648148,47.5574074 L31.9648148,55.3537037 Z" id="Shape"></path>
                    <path d="M83.8101852,23.3888889 L72.1157407,23.3888889 C71.039527,23.3888889 70.1666667,24.2617492 70.1666667,25.337963 L70.1666667,37.0324074 C70.1666667,38.1086211 71.039527,38.9814815 72.1157407,38.9814815 L83.8101852,38.9814815 C84.8863989,38.9814815 85.7592593,38.1086211 85.7592593,37.0324074 L85.7592593,25.337963 C85.7592593,24.2614244 84.8867238,23.3888889 83.8101852,23.3888889 Z M81.8611111,35.0833333 L74.0648148,35.0833333 L74.0648148,27.287037 L81.8611111,27.287037 L81.8611111,35.0833333 Z" id="Shape"></path>
                    <path d="M83.8101852,43.6592593 L72.1157407,43.6592593 C71.039527,43.6592593 70.1666667,44.5321196 70.1666667,45.6083333 L70.1666667,57.3027778 C70.1666667,58.3789915 71.039527,59.2518519 72.1157407,59.2518519 L83.8101852,59.2518519 C84.8863989,59.2518519 85.7592593,58.3789915 85.7592593,57.3027778 L85.7592593,45.6083333 C85.7592593,44.5317948 84.8867238,43.6592593 83.8101852,43.6592593 Z M81.8611111,55.3537037 L74.0648148,55.3537037 L74.0648148,47.5574074 L81.8611111,47.5574074 L81.8611111,55.3537037 Z" id="Shape"></path>
                    <path d="M133.706481,23.3888889 L122.012037,23.3888889 C120.935823,23.3888889 120.062963,24.2617492 120.062963,25.337963 L120.062963,37.0324074 C120.062963,38.1086211 120.935823,38.9814815 122.012037,38.9814815 L133.706481,38.9814815 C134.782695,38.9814815 135.655556,38.1086211 135.655556,37.0324074 L135.655556,25.337963 C135.655556,24.2614244 134.782695,23.3888889 133.706481,23.3888889 Z M131.757407,35.0833333 L123.961111,35.0833333 L123.961111,27.287037 L131.757407,27.287037 L131.757407,35.0833333 Z" id="Shape"></path>
                    <path d="M133.706481,43.6592593 L122.012037,43.6592593 C120.935823,43.6592593 120.062963,44.5321196 120.062963,45.6083333 L120.062963,57.3027778 C120.062963,58.3789915 120.935823,59.2518519 122.012037,59.2518519 L133.706481,59.2518519 C134.782695,59.2518519 135.655556,58.3789915 135.655556,57.3027778 L135.655556,45.6083333 C135.655556,44.5317948 134.782695,43.6592593 133.706481,43.6592593 Z M131.757407,55.3537037 L123.961111,55.3537037 L123.961111,47.5574074 L131.757407,47.5574074 L131.757407,55.3537037 Z" id="Shape"></path>
                    <path d="M154.002082,83.4662451 L149.287062,83.4662451 L149.287062,28.5713489 L154.002082,28.5713489 C155.064365,28.5713489 155.925926,27.7087607 155.925926,26.6452122 C155.925926,25.5816637 155.064365,24.7190755 154.002082,24.7190755 L149.287062,24.7190755 L149.287062,21.288626 C149.287062,20.6504327 148.971231,20.0536513 148.444098,19.6950689 L143.19489,16.1269006 L143.19489,1.92645773 C143.19489,0.862909246 142.333329,0.000321022785 141.271047,0.000321022785 L132.29311,0.000321022785 C131.230827,0.000321022785 130.369266,0.862909246 130.369266,1.92645773 L130.369266,7.40824281 L128.933758,6.43233354 C128.281254,5.98900108 127.424823,5.98900108 126.77232,6.43233354 L107.26198,19.6950689 C106.734526,20.0536513 106.419016,20.6504327 106.419016,21.288626 L106.419016,24.7190755 L99.350814,24.7190755 L99.350814,21.288626 C99.350814,20.6504327 99.034983,20.0536513 98.5078498,19.6950689 L93.0149555,15.9609318 L93.0149555,1.92613671 C93.0149555,0.862588223 92.1533942,0 91.0911118,0 L82.1131747,0 C81.0508924,0 80.189331,0.862588223 80.189331,1.92613671 L80.189331,7.24227403 L78.9978305,6.43233354 C78.3453269,5.98900108 77.4888958,5.98900108 76.8363922,6.43233354 L57.3260523,19.6950689 C56.7985985,20.0536513 56.4830881,20.6504327 56.4830881,21.288626 L56.4830881,24.7190755 L49.4148865,24.7190755 L49.4148865,21.288626 C49.4148865,20.6504327 49.0990555,20.0536513 48.5719223,19.6950689 L42.8343792,15.7952841 L42.8343792,1.92645773 C42.8343792,0.862909246 41.9728179,0.000321022785 40.9105356,0.000321022785 L31.9325984,0.000321022785 C30.8703161,0.000321022785 30.0087548,0.862909246 30.0087548,1.92645773 L30.0087548,7.07662627 L29.0609411,6.43233354 C28.4084375,5.98900108 27.5520064,5.98900108 26.8995028,6.43233354 L7.38916288,19.6950689 C6.86170908,20.0536513 6.54619871,20.6504327 6.54619871,21.288626 L6.54619871,24.7190755 L1.92384367,24.7190755 C0.861561322,24.7190755 0,25.5816637 0,26.6452122 C0,27.7087607 0.861561322,28.5713489 1.92384367,28.5713489 L6.54651935,28.5713489 L6.54651935,83.4662451 L1.92384367,83.4662451 C0.861240681,83.4662451 0,84.3288333 0,85.3923818 C0,86.4559303 0.861240681,87.3185185 1.92384367,87.3185185 L154.002082,87.3185185 C155.064365,87.3185185 155.925926,86.4559303 155.925926,85.3923818 C155.925926,84.3288333 155.064685,83.4662451 154.002082,83.4662451 Z M134.216953,3.85259444 L139.347203,3.85259444 L139.347203,13.511207 L134.216953,10.0236154 L134.216953,3.85259444 Z M106.419016,28.5713489 L106.419016,83.4662451 L99.350814,83.4662451 L99.350814,28.5713489 L106.419016,28.5713489 Z M84.0366977,3.85259444 L89.1669475,3.85259444 L89.1669475,13.3455592 L84.0366977,9.85796768 L84.0366977,3.85259444 Z M56.4827675,28.5713489 L56.4827675,83.4662451 L49.4145658,83.4662451 L49.4145658,28.5713489 L56.4827675,28.5713489 Z M33.8564421,3.85259444 L38.9866919,3.85259444 L38.9866919,13.1795904 L33.8564421,9.6919989 L33.8564421,3.85259444 Z M31.826787,83.4662451 L24.1314124,83.4662451 L24.1314124,69.3412426 L31.826787,69.3412426 L31.826787,83.4662451 Z M35.6744744,83.4662451 L35.6744744,67.4151059 C35.6744744,66.3515574 34.8129131,65.4889691 33.7506307,65.4889691 L22.2075687,65.4889691 C21.1452864,65.4889691 20.2837251,66.3515574 20.2837251,67.4151059 L20.2837251,83.4662451 L10.3942067,83.4662451 L10.3942067,22.3091574 L27.9803823,10.3539479 L45.5668785,22.3091574 L45.5668785,83.4662451 L35.6744744,83.4662451 Z M81.7633558,83.4662451 L74.0679811,83.4662451 L74.0679811,69.3412426 L81.7633558,69.3412426 L81.7633558,83.4662451 Z M85.6110431,83.4662451 L85.6110431,67.4151059 C85.6110431,66.3515574 84.7494818,65.4889691 83.6871995,65.4889691 L72.1441375,65.4889691 C71.0818551,65.4889691 70.2202938,66.3515574 70.2202938,67.4151059 L70.2202938,83.4662451 L60.3304548,83.4662451 L60.3304548,22.3091574 L77.916951,10.3539479 L95.5034473,22.3091574 L95.5034473,83.4662451 L85.6110431,83.4662451 Z M131.699604,83.4662451 L124.004229,83.4662451 L124.004229,69.3412426 L131.699604,69.3412426 L131.699604,83.4662451 Z M135.547291,83.4662451 L135.547291,67.4151059 C135.547291,66.3515574 134.68573,65.4889691 133.623448,65.4889691 L122.080386,65.4889691 C121.018103,65.4889691 120.156542,66.3515574 120.156542,67.4151059 L120.156542,83.4662451 L110.266703,83.4662451 L110.266703,22.3091574 L127.853199,10.3539479 L145.439695,22.3091574 L145.439695,83.4662451 L135.547291,83.4662451 Z" id="Shape"></path>
                </g>
                <g id="terraced-houses" transform="translate(171.518519, 0.000000)">
                    <path d="M33.9138889,23.3888889 L22.2194444,23.3888889 C21.1432307,23.3888889 20.2703704,24.2617492 20.2703704,25.337963 L20.2703704,37.0324074 C20.2703704,38.1086211 21.1432307,38.9814815 22.2194444,38.9814815 L33.9138889,38.9814815 C34.9901026,38.9814815 35.862963,38.1086211 35.862963,37.0324074 L35.862963,25.337963 C35.862963,24.2614244 34.9904275,23.3888889 33.9138889,23.3888889 Z M31.9648148,35.0833333 L24.1685185,35.0833333 L24.1685185,27.287037 L31.9648148,27.287037 L31.9648148,35.0833333 Z" id="Shape"></path>
                    <path d="M33.9138889,43.6592593 L22.2194444,43.6592593 C21.1432307,43.6592593 20.2703704,44.5321196 20.2703704,45.6083333 L20.2703704,57.3027778 C20.2703704,58.3789915 21.1432307,59.2518519 22.2194444,59.2518519 L33.9138889,59.2518519 C34.9901026,59.2518519 35.862963,58.3789915 35.862963,57.3027778 L35.862963,45.6083333 C35.862963,44.5317948 34.9904275,43.6592593 33.9138889,43.6592593 Z M31.9648148,55.3537037 L24.1685185,55.3537037 L24.1685185,47.5574074 L31.9648148,47.5574074 L31.9648148,55.3537037 Z" id="Shape"></path>
                    <path d="M83.8101852,23.3888889 L72.1157407,23.3888889 C71.039527,23.3888889 70.1666667,24.2617492 70.1666667,25.337963 L70.1666667,37.0324074 C70.1666667,38.1086211 71.039527,38.9814815 72.1157407,38.9814815 L83.8101852,38.9814815 C84.8863989,38.9814815 85.7592593,38.1086211 85.7592593,37.0324074 L85.7592593,25.337963 C85.7592593,24.2614244 84.8867238,23.3888889 83.8101852,23.3888889 Z M81.8611111,35.0833333 L74.0648148,35.0833333 L74.0648148,27.287037 L81.8611111,27.287037 L81.8611111,35.0833333 Z" id="Shape"></path>
                    <path d="M83.8101852,43.6592593 L72.1157407,43.6592593 C71.039527,43.6592593 70.1666667,44.5321196 70.1666667,45.6083333 L70.1666667,57.3027778 C70.1666667,58.3789915 71.039527,59.2518519 72.1157407,59.2518519 L83.8101852,59.2518519 C84.8863989,59.2518519 85.7592593,58.3789915 85.7592593,57.3027778 L85.7592593,45.6083333 C85.7592593,44.5317948 84.8867238,43.6592593 83.8101852,43.6592593 Z M81.8611111,55.3537037 L74.0648148,55.3537037 L74.0648148,47.5574074 L81.8611111,47.5574074 L81.8611111,55.3537037 Z" id="Shape"></path>
                    <path d="M133.706481,23.3888889 L122.012037,23.3888889 C120.935823,23.3888889 120.062963,24.2617492 120.062963,25.337963 L120.062963,37.0324074 C120.062963,38.1086211 120.935823,38.9814815 122.012037,38.9814815 L133.706481,38.9814815 C134.782695,38.9814815 135.655556,38.1086211 135.655556,37.0324074 L135.655556,25.337963 C135.655556,24.2614244 134.782695,23.3888889 133.706481,23.3888889 Z M131.757407,35.0833333 L123.961111,35.0833333 L123.961111,27.287037 L131.757407,27.287037 L131.757407,35.0833333 Z" id="Shape"></path>
                    <path d="M133.706481,43.6592593 L122.012037,43.6592593 C120.935823,43.6592593 120.062963,44.5321196 120.062963,45.6083333 L120.062963,57.3027778 C120.062963,58.3789915 120.935823,59.2518519 122.012037,59.2518519 L133.706481,59.2518519 C134.782695,59.2518519 135.655556,58.3789915 135.655556,57.3027778 L135.655556,45.6083333 C135.655556,44.5317948 134.782695,43.6592593 133.706481,43.6592593 Z M131.757407,55.3537037 L123.961111,55.3537037 L123.961111,47.5574074 L131.757407,47.5574074 L131.757407,55.3537037 Z" id="Shape"></path>
                    <path d="M154.002082,83.4662451 L149.287062,83.4662451 L149.287062,28.5713489 L154.002082,28.5713489 C155.064365,28.5713489 155.925926,27.7087607 155.925926,26.6452122 C155.925926,25.5816637 155.064365,24.7190755 154.002082,24.7190755 L149.287062,24.7190755 L149.287062,21.288626 C149.287062,20.6504327 148.971231,20.0536513 148.444098,19.6950689 L143.19489,16.1269006 L143.19489,1.92645773 C143.19489,0.862909246 142.333329,0.000321022785 141.271047,0.000321022785 L132.29311,0.000321022785 C131.230827,0.000321022785 130.369266,0.862909246 130.369266,1.92645773 L130.369266,7.40824281 L128.933758,6.43233354 C128.281254,5.98900108 127.424823,5.98900108 126.77232,6.43233354 L107.26198,19.6950689 C106.734526,20.0536513 106.419016,20.6504327 106.419016,21.288626 L106.419016,24.7190755 L99.350814,24.7190755 L99.350814,21.288626 C99.350814,20.6504327 99.034983,20.0536513 98.5078498,19.6950689 L93.0149555,15.9609318 L93.0149555,1.92613671 C93.0149555,0.862588223 92.1533942,0 91.0911118,0 L82.1131747,0 C81.0508924,0 80.189331,0.862588223 80.189331,1.92613671 L80.189331,7.24227403 L78.9978305,6.43233354 C78.3453269,5.98900108 77.4888958,5.98900108 76.8363922,6.43233354 L57.3260523,19.6950689 C56.7985985,20.0536513 56.4830881,20.6504327 56.4830881,21.288626 L56.4830881,24.7190755 L49.4148865,24.7190755 L49.4148865,21.288626 C49.4148865,20.6504327 49.0990555,20.0536513 48.5719223,19.6950689 L42.8343792,15.7952841 L42.8343792,1.92645773 C42.8343792,0.862909246 41.9728179,0.000321022785 40.9105356,0.000321022785 L31.9325984,0.000321022785 C30.8703161,0.000321022785 30.0087548,0.862909246 30.0087548,1.92645773 L30.0087548,7.07662627 L29.0609411,6.43233354 C28.4084375,5.98900108 27.5520064,5.98900108 26.8995028,6.43233354 L7.38916288,19.6950689 C6.86170908,20.0536513 6.54619871,20.6504327 6.54619871,21.288626 L6.54619871,24.7190755 L1.92384367,24.7190755 C0.861561322,24.7190755 0,25.5816637 0,26.6452122 C0,27.7087607 0.861561322,28.5713489 1.92384367,28.5713489 L6.54651935,28.5713489 L6.54651935,83.4662451 L1.92384367,83.4662451 C0.861240681,83.4662451 0,84.3288333 0,85.3923818 C0,86.4559303 0.861240681,87.3185185 1.92384367,87.3185185 L154.002082,87.3185185 C155.064365,87.3185185 155.925926,86.4559303 155.925926,85.3923818 C155.925926,84.3288333 155.064685,83.4662451 154.002082,83.4662451 Z M134.216953,3.85259444 L139.347203,3.85259444 L139.347203,13.511207 L134.216953,10.0236154 L134.216953,3.85259444 Z M106.419016,28.5713489 L106.419016,83.4662451 L99.350814,83.4662451 L99.350814,28.5713489 L106.419016,28.5713489 Z M84.0366977,3.85259444 L89.1669475,3.85259444 L89.1669475,13.3455592 L84.0366977,9.85796768 L84.0366977,3.85259444 Z M56.4827675,28.5713489 L56.4827675,83.4662451 L49.4145658,83.4662451 L49.4145658,28.5713489 L56.4827675,28.5713489 Z M33.8564421,3.85259444 L38.9866919,3.85259444 L38.9866919,13.1795904 L33.8564421,9.6919989 L33.8564421,3.85259444 Z M31.826787,83.4662451 L24.1314124,83.4662451 L24.1314124,69.3412426 L31.826787,69.3412426 L31.826787,83.4662451 Z M35.6744744,83.4662451 L35.6744744,67.4151059 C35.6744744,66.3515574 34.8129131,65.4889691 33.7506307,65.4889691 L22.2075687,65.4889691 C21.1452864,65.4889691 20.2837251,66.3515574 20.2837251,67.4151059 L20.2837251,83.4662451 L10.3942067,83.4662451 L10.3942067,22.3091574 L27.9803823,10.3539479 L45.5668785,22.3091574 L45.5668785,83.4662451 L35.6744744,83.4662451 Z M81.7633558,83.4662451 L74.0679811,83.4662451 L74.0679811,69.3412426 L81.7633558,69.3412426 L81.7633558,83.4662451 Z M85.6110431,83.4662451 L85.6110431,67.4151059 C85.6110431,66.3515574 84.7494818,65.4889691 83.6871995,65.4889691 L72.1441375,65.4889691 C71.0818551,65.4889691 70.2202938,66.3515574 70.2202938,67.4151059 L70.2202938,83.4662451 L60.3304548,83.4662451 L60.3304548,22.3091574 L77.916951,10.3539479 L95.5034473,22.3091574 L95.5034473,83.4662451 L85.6110431,83.4662451 Z M131.699604,83.4662451 L124.004229,83.4662451 L124.004229,69.3412426 L131.699604,69.3412426 L131.699604,83.4662451 Z M135.547291,83.4662451 L135.547291,67.4151059 C135.547291,66.3515574 134.68573,65.4889691 133.623448,65.4889691 L122.080386,65.4889691 C121.018103,65.4889691 120.156542,66.3515574 120.156542,67.4151059 L120.156542,83.4662451 L110.266703,83.4662451 L110.266703,22.3091574 L127.853199,10.3539479 L145.439695,22.3091574 L145.439695,83.4662451 L135.547291,83.4662451 Z" id="Shape"></path>
                </g>
                <g id="terraced-houses">
                    <path d="M33.9138889,23.3888889 L22.2194444,23.3888889 C21.1432307,23.3888889 20.2703704,24.2617492 20.2703704,25.337963 L20.2703704,37.0324074 C20.2703704,38.1086211 21.1432307,38.9814815 22.2194444,38.9814815 L33.9138889,38.9814815 C34.9901026,38.9814815 35.862963,38.1086211 35.862963,37.0324074 L35.862963,25.337963 C35.862963,24.2614244 34.9904275,23.3888889 33.9138889,23.3888889 Z M31.9648148,35.0833333 L24.1685185,35.0833333 L24.1685185,27.287037 L31.9648148,27.287037 L31.9648148,35.0833333 Z" id="Shape"></path>
                    <path d="M33.9138889,43.6592593 L22.2194444,43.6592593 C21.1432307,43.6592593 20.2703704,44.5321196 20.2703704,45.6083333 L20.2703704,57.3027778 C20.2703704,58.3789915 21.1432307,59.2518519 22.2194444,59.2518519 L33.9138889,59.2518519 C34.9901026,59.2518519 35.862963,58.3789915 35.862963,57.3027778 L35.862963,45.6083333 C35.862963,44.5317948 34.9904275,43.6592593 33.9138889,43.6592593 Z M31.9648148,55.3537037 L24.1685185,55.3537037 L24.1685185,47.5574074 L31.9648148,47.5574074 L31.9648148,55.3537037 Z" id="Shape"></path>
                    <path d="M83.8101852,23.3888889 L72.1157407,23.3888889 C71.039527,23.3888889 70.1666667,24.2617492 70.1666667,25.337963 L70.1666667,37.0324074 C70.1666667,38.1086211 71.039527,38.9814815 72.1157407,38.9814815 L83.8101852,38.9814815 C84.8863989,38.9814815 85.7592593,38.1086211 85.7592593,37.0324074 L85.7592593,25.337963 C85.7592593,24.2614244 84.8867238,23.3888889 83.8101852,23.3888889 Z M81.8611111,35.0833333 L74.0648148,35.0833333 L74.0648148,27.287037 L81.8611111,27.287037 L81.8611111,35.0833333 Z" id="Shape"></path>
                    <path d="M83.8101852,43.6592593 L72.1157407,43.6592593 C71.039527,43.6592593 70.1666667,44.5321196 70.1666667,45.6083333 L70.1666667,57.3027778 C70.1666667,58.3789915 71.039527,59.2518519 72.1157407,59.2518519 L83.8101852,59.2518519 C84.8863989,59.2518519 85.7592593,58.3789915 85.7592593,57.3027778 L85.7592593,45.6083333 C85.7592593,44.5317948 84.8867238,43.6592593 83.8101852,43.6592593 Z M81.8611111,55.3537037 L74.0648148,55.3537037 L74.0648148,47.5574074 L81.8611111,47.5574074 L81.8611111,55.3537037 Z" id="Shape"></path>
                    <path d="M133.706481,23.3888889 L122.012037,23.3888889 C120.935823,23.3888889 120.062963,24.2617492 120.062963,25.337963 L120.062963,37.0324074 C120.062963,38.1086211 120.935823,38.9814815 122.012037,38.9814815 L133.706481,38.9814815 C134.782695,38.9814815 135.655556,38.1086211 135.655556,37.0324074 L135.655556,25.337963 C135.655556,24.2614244 134.782695,23.3888889 133.706481,23.3888889 Z M131.757407,35.0833333 L123.961111,35.0833333 L123.961111,27.287037 L131.757407,27.287037 L131.757407,35.0833333 Z" id="Shape"></path>
                    <path d="M133.706481,43.6592593 L122.012037,43.6592593 C120.935823,43.6592593 120.062963,44.5321196 120.062963,45.6083333 L120.062963,57.3027778 C120.062963,58.3789915 120.935823,59.2518519 122.012037,59.2518519 L133.706481,59.2518519 C134.782695,59.2518519 135.655556,58.3789915 135.655556,57.3027778 L135.655556,45.6083333 C135.655556,44.5317948 134.782695,43.6592593 133.706481,43.6592593 Z M131.757407,55.3537037 L123.961111,55.3537037 L123.961111,47.5574074 L131.757407,47.5574074 L131.757407,55.3537037 Z" id="Shape"></path>
                    <path d="M154.002082,83.4662451 L149.287062,83.4662451 L149.287062,28.5713489 L154.002082,28.5713489 C155.064365,28.5713489 155.925926,27.7087607 155.925926,26.6452122 C155.925926,25.5816637 155.064365,24.7190755 154.002082,24.7190755 L149.287062,24.7190755 L149.287062,21.288626 C149.287062,20.6504327 148.971231,20.0536513 148.444098,19.6950689 L143.19489,16.1269006 L143.19489,1.92645773 C143.19489,0.862909246 142.333329,0.000321022785 141.271047,0.000321022785 L132.29311,0.000321022785 C131.230827,0.000321022785 130.369266,0.862909246 130.369266,1.92645773 L130.369266,7.40824281 L128.933758,6.43233354 C128.281254,5.98900108 127.424823,5.98900108 126.77232,6.43233354 L107.26198,19.6950689 C106.734526,20.0536513 106.419016,20.6504327 106.419016,21.288626 L106.419016,24.7190755 L99.350814,24.7190755 L99.350814,21.288626 C99.350814,20.6504327 99.034983,20.0536513 98.5078498,19.6950689 L93.0149555,15.9609318 L93.0149555,1.92613671 C93.0149555,0.862588223 92.1533942,0 91.0911118,0 L82.1131747,0 C81.0508924,0 80.189331,0.862588223 80.189331,1.92613671 L80.189331,7.24227403 L78.9978305,6.43233354 C78.3453269,5.98900108 77.4888958,5.98900108 76.8363922,6.43233354 L57.3260523,19.6950689 C56.7985985,20.0536513 56.4830881,20.6504327 56.4830881,21.288626 L56.4830881,24.7190755 L49.4148865,24.7190755 L49.4148865,21.288626 C49.4148865,20.6504327 49.0990555,20.0536513 48.5719223,19.6950689 L42.8343792,15.7952841 L42.8343792,1.92645773 C42.8343792,0.862909246 41.9728179,0.000321022785 40.9105356,0.000321022785 L31.9325984,0.000321022785 C30.8703161,0.000321022785 30.0087548,0.862909246 30.0087548,1.92645773 L30.0087548,7.07662627 L29.0609411,6.43233354 C28.4084375,5.98900108 27.5520064,5.98900108 26.8995028,6.43233354 L7.38916288,19.6950689 C6.86170908,20.0536513 6.54619871,20.6504327 6.54619871,21.288626 L6.54619871,24.7190755 L1.92384367,24.7190755 C0.861561322,24.7190755 0,25.5816637 0,26.6452122 C0,27.7087607 0.861561322,28.5713489 1.92384367,28.5713489 L6.54651935,28.5713489 L6.54651935,83.4662451 L1.92384367,83.4662451 C0.861240681,83.4662451 0,84.3288333 0,85.3923818 C0,86.4559303 0.861240681,87.3185185 1.92384367,87.3185185 L154.002082,87.3185185 C155.064365,87.3185185 155.925926,86.4559303 155.925926,85.3923818 C155.925926,84.3288333 155.064685,83.4662451 154.002082,83.4662451 Z M134.216953,3.85259444 L139.347203,3.85259444 L139.347203,13.511207 L134.216953,10.0236154 L134.216953,3.85259444 Z M106.419016,28.5713489 L106.419016,83.4662451 L99.350814,83.4662451 L99.350814,28.5713489 L106.419016,28.5713489 Z M84.0366977,3.85259444 L89.1669475,3.85259444 L89.1669475,13.3455592 L84.0366977,9.85796768 L84.0366977,3.85259444 Z M56.4827675,28.5713489 L56.4827675,83.4662451 L49.4145658,83.4662451 L49.4145658,28.5713489 L56.4827675,28.5713489 Z M33.8564421,3.85259444 L38.9866919,3.85259444 L38.9866919,13.1795904 L33.8564421,9.6919989 L33.8564421,3.85259444 Z M31.826787,83.4662451 L24.1314124,83.4662451 L24.1314124,69.3412426 L31.826787,69.3412426 L31.826787,83.4662451 Z M35.6744744,83.4662451 L35.6744744,67.4151059 C35.6744744,66.3515574 34.8129131,65.4889691 33.7506307,65.4889691 L22.2075687,65.4889691 C21.1452864,65.4889691 20.2837251,66.3515574 20.2837251,67.4151059 L20.2837251,83.4662451 L10.3942067,83.4662451 L10.3942067,22.3091574 L27.9803823,10.3539479 L45.5668785,22.3091574 L45.5668785,83.4662451 L35.6744744,83.4662451 Z M81.7633558,83.4662451 L74.0679811,83.4662451 L74.0679811,69.3412426 L81.7633558,69.3412426 L81.7633558,83.4662451 Z M85.6110431,83.4662451 L85.6110431,67.4151059 C85.6110431,66.3515574 84.7494818,65.4889691 83.6871995,65.4889691 L72.1441375,65.4889691 C71.0818551,65.4889691 70.2202938,66.3515574 70.2202938,67.4151059 L70.2202938,83.4662451 L60.3304548,83.4662451 L60.3304548,22.3091574 L77.916951,10.3539479 L95.5034473,22.3091574 L95.5034473,83.4662451 L85.6110431,83.4662451 Z M131.699604,83.4662451 L124.004229,83.4662451 L124.004229,69.3412426 L131.699604,69.3412426 L131.699604,83.4662451 Z M135.547291,83.4662451 L135.547291,67.4151059 C135.547291,66.3515574 134.68573,65.4889691 133.623448,65.4889691 L122.080386,65.4889691 C121.018103,65.4889691 120.156542,66.3515574 120.156542,67.4151059 L120.156542,83.4662451 L110.266703,83.4662451 L110.266703,22.3091574 L127.853199,10.3539479 L145.439695,22.3091574 L145.439695,83.4662451 L135.547291,83.4662451 Z" id="Shape"></path>
                </g>
            </g>
        </g>
    </g>
</svg>