<?xml version="1.0" encoding="UTF-8"?>
<svg width="842px" height="87px" viewBox="0 0 842 87" version="1.1" xmlns="http://www.w3.org/2000/svg" xmlns:xlink="http://www.w3.org/1999/xlink">
    <!-- Generator: Sketch 48.2 (47327) - http://www.bohemiancoding.com/sketch -->
    <title>one-house</title>
    <desc>Created with Sketch.</desc>
    <defs></defs>
    <g id="Page-1" stroke="none" stroke-width="1" fill="none" fill-rule="evenodd">
        <g id="one-house" fill-rule="nonzero">
            <g id="2of5" transform="translate(0.000000, -1.000000)">
                <g id="terraced-houses" transform="translate(343.000000, 0.000000)" fill="#C0C0C0">
                    <path d="M33.93,23.3035714 L22.23,23.3035714 C21.153275,23.3035714 20.28,24.1732478 20.28,25.2455357 L20.28,36.8973214 C20.28,37.9696094 21.153275,38.8392857 22.23,38.8392857 L33.93,38.8392857 C35.006725,38.8392857 35.88,37.9696094 35.88,36.8973214 L35.88,25.2455357 C35.88,24.1729241 35.00705,23.3035714 33.93,23.3035714 Z M31.98,34.9553571 L24.18,34.9553571 L24.18,27.1875 L31.98,27.1875 L31.98,34.9553571 Z" id="Shape"></path>
                    <path d="M33.93,43.5 L22.23,43.5 C21.153275,43.5 20.28,44.3696763 20.28,45.4419643 L20.28,57.09375 C20.28,58.1660379 21.153275,59.0357143 22.23,59.0357143 L33.93,59.0357143 C35.006725,59.0357143 35.88,58.1660379 35.88,57.09375 L35.88,45.4419643 C35.88,44.3693527 35.00705,43.5 33.93,43.5 Z M31.98,55.1517857 L24.18,55.1517857 L24.18,47.3839286 L31.98,47.3839286 L31.98,55.1517857 Z" id="Shape"></path>
                    <path d="M83.85,23.3035714 L72.15,23.3035714 C71.073275,23.3035714 70.2,24.1732478 70.2,25.2455357 L70.2,36.8973214 C70.2,37.9696094 71.073275,38.8392857 72.15,38.8392857 L83.85,38.8392857 C84.926725,38.8392857 85.8,37.9696094 85.8,36.8973214 L85.8,25.2455357 C85.8,24.1729241 84.92705,23.3035714 83.85,23.3035714 Z M81.9,34.9553571 L74.1,34.9553571 L74.1,27.1875 L81.9,27.1875 L81.9,34.9553571 Z" id="Shape"></path>
                    <path d="M83.85,43.5 L72.15,43.5 C71.073275,43.5 70.2,44.3696763 70.2,45.4419643 L70.2,57.09375 C70.2,58.1660379 71.073275,59.0357143 72.15,59.0357143 L83.85,59.0357143 C84.926725,59.0357143 85.8,58.1660379 85.8,57.09375 L85.8,45.4419643 C85.8,44.3693527 84.92705,43.5 83.85,43.5 Z M81.9,55.1517857 L74.1,55.1517857 L74.1,47.3839286 L81.9,47.3839286 L81.9,55.1517857 Z" id="Shape"></path>
                    <path d="M133.77,23.3035714 L122.07,23.3035714 C120.993275,23.3035714 120.12,24.1732478 120.12,25.2455357 L120.12,36.8973214 C120.12,37.9696094 120.993275,38.8392857 122.07,38.8392857 L133.77,38.8392857 C134.846725,38.8392857 135.72,37.9696094 135.72,36.8973214 L135.72,25.2455357 C135.72,24.1729241 134.846725,23.3035714 133.77,23.3035714 Z M131.82,34.9553571 L124.02,34.9553571 L124.02,27.1875 L131.82,27.1875 L131.82,34.9553571 Z" id="Shape"></path>
                    <path d="M133.77,43.5 L122.07,43.5 C120.993275,43.5 120.12,44.3696763 120.12,45.4419643 L120.12,57.09375 C120.12,58.1660379 120.993275,59.0357143 122.07,59.0357143 L133.77,59.0357143 C134.846725,59.0357143 135.72,58.1660379 135.72,57.09375 L135.72,45.4419643 C135.72,44.3693527 134.846725,43.5 133.77,43.5 Z M131.82,55.1517857 L124.02,55.1517857 L124.02,47.3839286 L131.82,47.3839286 L131.82,55.1517857 Z" id="Shape"></path>
                    <path d="M154.075242,83.1617788 L149.357982,83.1617788 L149.357982,28.467127 L154.075242,28.467127 C155.138029,28.467127 156,27.6076853 156,26.5480164 C156,25.4883475 155.138029,24.6289058 154.075242,24.6289058 L149.357982,24.6289058 L149.357982,21.2109698 C149.357982,20.5751045 149.042001,19.9805001 148.514618,19.6232256 L143.262917,16.0680733 L143.262917,1.91943044 C143.262917,0.859761545 142.400946,0.000319851765 141.338159,0.000319851765 L132.355957,0.000319851765 C131.29317,0.000319851765 130.431199,0.859761545 130.431199,1.91943044 L130.431199,7.38121919 L128.995009,6.40886982 C128.342196,5.96715453 127.485358,5.96715453 126.832544,6.40886982 L107.312936,19.6232256 C106.785231,19.9805001 106.469571,20.5751045 106.469571,21.2109698 L106.469571,24.6289058 L99.3980115,24.6289058 L99.3980115,21.2109698 C99.3980115,20.5751045 99.0820305,19.9805001 98.5546469,19.6232256 L93.0591431,15.9027099 L93.0591431,1.91911059 C93.0591431,0.859441693 92.1971725,0 91.1343855,0 L82.1521833,0 C81.0893964,0 80.2274257,0.859441693 80.2274257,1.91911059 L80.2274257,7.21585582 L79.0353592,6.40886982 C78.3825456,5.96715453 77.5257076,5.96715453 76.872894,6.40886982 L57.3532856,19.6232256 C56.8255812,19.9805001 56.5099209,20.5751045 56.5099209,21.2109698 L56.5099209,24.6289058 L49.4383615,24.6289058 L49.4383615,21.2109698 C49.4383615,20.5751045 49.1223804,19.9805001 48.5949969,19.6232256 L42.8547281,15.7376664 L42.8547281,1.91943044 C42.8547281,0.859761545 41.9927575,0.000319851765 40.9299705,0.000319851765 L31.9477683,0.000319851765 C30.8849813,0.000319851765 30.0230107,0.859761545 30.0230107,1.91943044 L30.0230107,7.05081231 L29.0747468,6.40886982 C28.4219332,5.96715453 27.5650953,5.96715453 26.9122816,6.40886982 L7.39267317,19.6232256 C6.86496879,19.9805001 6.54930855,20.5751045 6.54930855,21.2109698 L6.54930855,24.6289058 L1.92475761,24.6289058 C0.861970615,24.6289058 0,25.4883475 0,26.5480164 C0,27.6076853 0.861970615,28.467127 1.92475761,28.467127 L6.54962934,28.467127 L6.54962934,83.1617788 L1.92475761,83.1617788 C0.861649822,83.1617788 0,84.0212205 0,85.0808894 C0,86.1405583 0.861649822,87 1.92475761,87 L154.075242,87 C155.138029,87 156,86.1405583 156,85.0808894 C156,84.0212205 155.13835,83.1617788 154.075242,83.1617788 Z M134.280714,3.83854103 L139.413401,3.83854103 L139.413401,13.4619211 L134.280714,9.98705152 L134.280714,3.83854103 Z M106.469571,28.467127 L106.469571,83.1617788 L99.3980115,83.1617788 L99.3980115,28.467127 L106.469571,28.467127 Z M84.0766202,3.83854103 L89.2093071,3.83854103 L89.2093071,13.2968776 L84.0766202,9.82200801 L84.0766202,3.83854103 Z M56.5096001,28.467127 L56.5096001,83.1617788 L49.4380407,83.1617788 L49.4380407,28.467127 L56.5096001,28.467127 Z M33.8725259,3.83854103 L39.0052129,3.83854103 L39.0052129,13.1315142 L33.8725259,9.65664464 L33.8725259,3.83854103 Z M31.8419067,83.1617788 L24.1428762,83.1617788 L24.1428762,69.0883011 L31.8419067,69.0883011 L31.8419067,83.1617788 Z M35.6914219,83.1617788 L35.6914219,67.1691906 C35.6914219,66.1095217 34.8294513,65.25008 33.7666643,65.25008 L22.2181186,65.25008 C21.1553316,65.25008 20.293361,66.1095217 20.293361,67.1691906 L20.293361,83.1617788 L10.3991446,83.1617788 L10.3991446,22.2277786 L27.9936746,10.316179 L45.5885255,22.2277786 L45.5885255,83.1617788 L35.6914219,83.1617788 Z M81.8021983,83.1617788 L74.1031678,83.1617788 L74.1031678,69.0883011 L81.8021983,69.0883011 L81.8021983,83.1617788 Z M85.6517135,83.1617788 L85.6517135,67.1691906 C85.6517135,66.1095217 84.7897429,65.25008 83.7269559,65.25008 L72.1784102,65.25008 C71.1156232,65.25008 70.2536526,66.1095217 70.2536526,67.1691906 L70.2536526,83.1617788 L60.3591154,83.1617788 L60.3591154,22.2277786 L77.9539662,10.316179 L95.5488171,22.2277786 L95.5488171,83.1617788 L85.6517135,83.1617788 Z M131.762169,83.1617788 L124.063139,83.1617788 L124.063139,69.0883011 L131.762169,69.0883011 L131.762169,83.1617788 Z M135.611684,83.1617788 L135.611684,67.1691906 C135.611684,66.1095217 134.749714,65.25008 133.686927,65.25008 L122.138381,65.25008 C121.075594,65.25008 120.213623,66.1095217 120.213623,67.1691906 L120.213623,83.1617788 L110.319086,83.1617788 L110.319086,22.2277786 L127.913937,10.316179 L145.508788,22.2277786 L145.508788,83.1617788 L135.611684,83.1617788 Z" id="Shape"></path>
                </g>
                <g id="terraced-houses" transform="translate(515.000000, 0.000000)" fill="#C0C0C0">
                    <path d="M33.93,23.3035714 L22.23,23.3035714 C21.153275,23.3035714 20.28,24.1732478 20.28,25.2455357 L20.28,36.8973214 C20.28,37.9696094 21.153275,38.8392857 22.23,38.8392857 L33.93,38.8392857 C35.006725,38.8392857 35.88,37.9696094 35.88,36.8973214 L35.88,25.2455357 C35.88,24.1729241 35.00705,23.3035714 33.93,23.3035714 Z M31.98,34.9553571 L24.18,34.9553571 L24.18,27.1875 L31.98,27.1875 L31.98,34.9553571 Z" id="Shape"></path>
                    <path d="M33.93,43.5 L22.23,43.5 C21.153275,43.5 20.28,44.3696763 20.28,45.4419643 L20.28,57.09375 C20.28,58.1660379 21.153275,59.0357143 22.23,59.0357143 L33.93,59.0357143 C35.006725,59.0357143 35.88,58.1660379 35.88,57.09375 L35.88,45.4419643 C35.88,44.3693527 35.00705,43.5 33.93,43.5 Z M31.98,55.1517857 L24.18,55.1517857 L24.18,47.3839286 L31.98,47.3839286 L31.98,55.1517857 Z" id="Shape"></path>
                    <path d="M83.85,23.3035714 L72.15,23.3035714 C71.073275,23.3035714 70.2,24.1732478 70.2,25.2455357 L70.2,36.8973214 C70.2,37.9696094 71.073275,38.8392857 72.15,38.8392857 L83.85,38.8392857 C84.926725,38.8392857 85.8,37.9696094 85.8,36.8973214 L85.8,25.2455357 C85.8,24.1729241 84.92705,23.3035714 83.85,23.3035714 Z M81.9,34.9553571 L74.1,34.9553571 L74.1,27.1875 L81.9,27.1875 L81.9,34.9553571 Z" id="Shape"></path>
                    <path d="M83.85,43.5 L72.15,43.5 C71.073275,43.5 70.2,44.3696763 70.2,45.4419643 L70.2,57.09375 C70.2,58.1660379 71.073275,59.0357143 72.15,59.0357143 L83.85,59.0357143 C84.926725,59.0357143 85.8,58.1660379 85.8,57.09375 L85.8,45.4419643 C85.8,44.3693527 84.92705,43.5 83.85,43.5 Z M81.9,55.1517857 L74.1,55.1517857 L74.1,47.3839286 L81.9,47.3839286 L81.9,55.1517857 Z" id="Shape"></path>
                    <path d="M133.77,23.3035714 L122.07,23.3035714 C120.993275,23.3035714 120.12,24.1732478 120.12,25.2455357 L120.12,36.8973214 C120.12,37.9696094 120.993275,38.8392857 122.07,38.8392857 L133.77,38.8392857 C134.846725,38.8392857 135.72,37.9696094 135.72,36.8973214 L135.72,25.2455357 C135.72,24.1729241 134.846725,23.3035714 133.77,23.3035714 Z M131.82,34.9553571 L124.02,34.9553571 L124.02,27.1875 L131.82,27.1875 L131.82,34.9553571 Z" id="Shape"></path>
                    <path d="M133.77,43.5 L122.07,43.5 C120.993275,43.5 120.12,44.3696763 120.12,45.4419643 L120.12,57.09375 C120.12,58.1660379 120.993275,59.0357143 122.07,59.0357143 L133.77,59.0357143 C134.846725,59.0357143 135.72,58.1660379 135.72,57.09375 L135.72,45.4419643 C135.72,44.3693527 134.846725,43.5 133.77,43.5 Z M131.82,55.1517857 L124.02,55.1517857 L124.02,47.3839286 L131.82,47.3839286 L131.82,55.1517857 Z" id="Shape"></path>
                    <path d="M154.075242,83.1617788 L149.357982,83.1617788 L149.357982,28.467127 L154.075242,28.467127 C155.138029,28.467127 156,27.6076853 156,26.5480164 C156,25.4883475 155.138029,24.6289058 154.075242,24.6289058 L149.357982,24.6289058 L149.357982,21.2109698 C149.357982,20.5751045 149.042001,19.9805001 148.514618,19.6232256 L143.262917,16.0680733 L143.262917,1.91943044 C143.262917,0.859761545 142.400946,0.000319851765 141.338159,0.000319851765 L132.355957,0.000319851765 C131.29317,0.000319851765 130.431199,0.859761545 130.431199,1.91943044 L130.431199,7.38121919 L128.995009,6.40886982 C128.342196,5.96715453 127.485358,5.96715453 126.832544,6.40886982 L107.312936,19.6232256 C106.785231,19.9805001 106.469571,20.5751045 106.469571,21.2109698 L106.469571,24.6289058 L99.3980115,24.6289058 L99.3980115,21.2109698 C99.3980115,20.5751045 99.0820305,19.9805001 98.5546469,19.6232256 L93.0591431,15.9027099 L93.0591431,1.91911059 C93.0591431,0.859441693 92.1971725,0 91.1343855,0 L82.1521833,0 C81.0893964,0 80.2274257,0.859441693 80.2274257,1.91911059 L80.2274257,7.21585582 L79.0353592,6.40886982 C78.3825456,5.96715453 77.5257076,5.96715453 76.872894,6.40886982 L57.3532856,19.6232256 C56.8255812,19.9805001 56.5099209,20.5751045 56.5099209,21.2109698 L56.5099209,24.6289058 L49.4383615,24.6289058 L49.4383615,21.2109698 C49.4383615,20.5751045 49.1223804,19.9805001 48.5949969,19.6232256 L42.8547281,15.7376664 L42.8547281,1.91943044 C42.8547281,0.859761545 41.9927575,0.000319851765 40.9299705,0.000319851765 L31.9477683,0.000319851765 C30.8849813,0.000319851765 30.0230107,0.859761545 30.0230107,1.91943044 L30.0230107,7.05081231 L29.0747468,6.40886982 C28.4219332,5.96715453 27.5650953,5.96715453 26.9122816,6.40886982 L7.39267317,19.6232256 C6.86496879,19.9805001 6.54930855,20.5751045 6.54930855,21.2109698 L6.54930855,24.6289058 L1.92475761,24.6289058 C0.861970615,24.6289058 0,25.4883475 0,26.5480164 C0,27.6076853 0.861970615,28.467127 1.92475761,28.467127 L6.54962934,28.467127 L6.54962934,83.1617788 L1.92475761,83.1617788 C0.861649822,83.1617788 0,84.0212205 0,85.0808894 C0,86.1405583 0.861649822,87 1.92475761,87 L154.075242,87 C155.138029,87 156,86.1405583 156,85.0808894 C156,84.0212205 155.13835,83.1617788 154.075242,83.1617788 Z M134.280714,3.83854103 L139.413401,3.83854103 L139.413401,13.4619211 L134.280714,9.98705152 L134.280714,3.83854103 Z M106.469571,28.467127 L106.469571,83.1617788 L99.3980115,83.1617788 L99.3980115,28.467127 L106.469571,28.467127 Z M84.0766202,3.83854103 L89.2093071,3.83854103 L89.2093071,13.2968776 L84.0766202,9.82200801 L84.0766202,3.83854103 Z M56.5096001,28.467127 L56.5096001,83.1617788 L49.4380407,83.1617788 L49.4380407,28.467127 L56.5096001,28.467127 Z M33.8725259,3.83854103 L39.0052129,3.83854103 L39.0052129,13.1315142 L33.8725259,9.65664464 L33.8725259,3.83854103 Z M31.8419067,83.1617788 L24.1428762,83.1617788 L24.1428762,69.0883011 L31.8419067,69.0883011 L31.8419067,83.1617788 Z M35.6914219,83.1617788 L35.6914219,67.1691906 C35.6914219,66.1095217 34.8294513,65.25008 33.7666643,65.25008 L22.2181186,65.25008 C21.1553316,65.25008 20.293361,66.1095217 20.293361,67.1691906 L20.293361,83.1617788 L10.3991446,83.1617788 L10.3991446,22.2277786 L27.9936746,10.316179 L45.5885255,22.2277786 L45.5885255,83.1617788 L35.6914219,83.1617788 Z M81.8021983,83.1617788 L74.1031678,83.1617788 L74.1031678,69.0883011 L81.8021983,69.0883011 L81.8021983,83.1617788 Z M85.6517135,83.1617788 L85.6517135,67.1691906 C85.6517135,66.1095217 84.7897429,65.25008 83.7269559,65.25008 L72.1784102,65.25008 C71.1156232,65.25008 70.2536526,66.1095217 70.2536526,67.1691906 L70.2536526,83.1617788 L60.3591154,83.1617788 L60.3591154,22.2277786 L77.9539662,10.316179 L95.5488171,22.2277786 L95.5488171,83.1617788 L85.6517135,83.1617788 Z M131.762169,83.1617788 L124.063139,83.1617788 L124.063139,69.0883011 L131.762169,69.0883011 L131.762169,83.1617788 Z M135.611684,83.1617788 L135.611684,67.1691906 C135.611684,66.1095217 134.749714,65.25008 133.686927,65.25008 L122.138381,65.25008 C121.075594,65.25008 120.213623,66.1095217 120.213623,67.1691906 L120.213623,83.1617788 L110.319086,83.1617788 L110.319086,22.2277786 L127.913937,10.316179 L145.508788,22.2277786 L145.508788,83.1617788 L135.611684,83.1617788 Z" id="Shape"></path>
                </g>
                <g id="terraced-houses" transform="translate(686.000000, 0.000000)" fill="#C0C0C0">
                    <path d="M33.93,23.3035714 L22.23,23.3035714 C21.153275,23.3035714 20.28,24.1732478 20.28,25.2455357 L20.28,36.8973214 C20.28,37.9696094 21.153275,38.8392857 22.23,38.8392857 L33.93,38.8392857 C35.006725,38.8392857 35.88,37.9696094 35.88,36.8973214 L35.88,25.2455357 C35.88,24.1729241 35.00705,23.3035714 33.93,23.3035714 Z M31.98,34.9553571 L24.18,34.9553571 L24.18,27.1875 L31.98,27.1875 L31.98,34.9553571 Z" id="Shape"></path>
                    <path d="M33.93,43.5 L22.23,43.5 C21.153275,43.5 20.28,44.3696763 20.28,45.4419643 L20.28,57.09375 C20.28,58.1660379 21.153275,59.0357143 22.23,59.0357143 L33.93,59.0357143 C35.006725,59.0357143 35.88,58.1660379 35.88,57.09375 L35.88,45.4419643 C35.88,44.3693527 35.00705,43.5 33.93,43.5 Z M31.98,55.1517857 L24.18,55.1517857 L24.18,47.3839286 L31.98,47.3839286 L31.98,55.1517857 Z" id="Shape"></path>
                    <path d="M83.85,23.3035714 L72.15,23.3035714 C71.073275,23.3035714 70.2,24.1732478 70.2,25.2455357 L70.2,36.8973214 C70.2,37.9696094 71.073275,38.8392857 72.15,38.8392857 L83.85,38.8392857 C84.926725,38.8392857 85.8,37.9696094 85.8,36.8973214 L85.8,25.2455357 C85.8,24.1729241 84.92705,23.3035714 83.85,23.3035714 Z M81.9,34.9553571 L74.1,34.9553571 L74.1,27.1875 L81.9,27.1875 L81.9,34.9553571 Z" id="Shape"></path>
                    <path d="M83.85,43.5 L72.15,43.5 C71.073275,43.5 70.2,44.3696763 70.2,45.4419643 L70.2,57.09375 C70.2,58.1660379 71.073275,59.0357143 72.15,59.0357143 L83.85,59.0357143 C84.926725,59.0357143 85.8,58.1660379 85.8,57.09375 L85.8,45.4419643 C85.8,44.3693527 84.92705,43.5 83.85,43.5 Z M81.9,55.1517857 L74.1,55.1517857 L74.1,47.3839286 L81.9,47.3839286 L81.9,55.1517857 Z" id="Shape"></path>
                    <path d="M133.77,23.3035714 L122.07,23.3035714 C120.993275,23.3035714 120.12,24.1732478 120.12,25.2455357 L120.12,36.8973214 C120.12,37.9696094 120.993275,38.8392857 122.07,38.8392857 L133.77,38.8392857 C134.846725,38.8392857 135.72,37.9696094 135.72,36.8973214 L135.72,25.2455357 C135.72,24.1729241 134.846725,23.3035714 133.77,23.3035714 Z M131.82,34.9553571 L124.02,34.9553571 L124.02,27.1875 L131.82,27.1875 L131.82,34.9553571 Z" id="Shape"></path>
                    <path d="M133.77,43.5 L122.07,43.5 C120.993275,43.5 120.12,44.3696763 120.12,45.4419643 L120.12,57.09375 C120.12,58.1660379 120.993275,59.0357143 122.07,59.0357143 L133.77,59.0357143 C134.846725,59.0357143 135.72,58.1660379 135.72,57.09375 L135.72,45.4419643 C135.72,44.3693527 134.846725,43.5 133.77,43.5 Z M131.82,55.1517857 L124.02,55.1517857 L124.02,47.3839286 L131.82,47.3839286 L131.82,55.1517857 Z" id="Shape"></path>
                    <path d="M154.075242,83.1617788 L149.357982,83.1617788 L149.357982,28.467127 L154.075242,28.467127 C155.138029,28.467127 156,27.6076853 156,26.5480164 C156,25.4883475 155.138029,24.6289058 154.075242,24.6289058 L149.357982,24.6289058 L149.357982,21.2109698 C149.357982,20.5751045 149.042001,19.9805001 148.514618,19.6232256 L143.262917,16.0680733 L143.262917,1.91943044 C143.262917,0.859761545 142.400946,0.000319851765 141.338159,0.000319851765 L132.355957,0.000319851765 C131.29317,0.000319851765 130.431199,0.859761545 130.431199,1.91943044 L130.431199,7.38121919 L128.995009,6.40886982 C128.342196,5.96715453 127.485358,5.96715453 126.832544,6.40886982 L107.312936,19.6232256 C106.785231,19.9805001 106.469571,20.5751045 106.469571,21.2109698 L106.469571,24.6289058 L99.3980115,24.6289058 L99.3980115,21.2109698 C99.3980115,20.5751045 99.0820305,19.9805001 98.5546469,19.6232256 L93.0591431,15.9027099 L93.0591431,1.91911059 C93.0591431,0.859441693 92.1971725,0 91.1343855,0 L82.1521833,0 C81.0893964,0 80.2274257,0.859441693 80.2274257,1.91911059 L80.2274257,7.21585582 L79.0353592,6.40886982 C78.3825456,5.96715453 77.5257076,5.96715453 76.872894,6.40886982 L57.3532856,19.6232256 C56.8255812,19.9805001 56.5099209,20.5751045 56.5099209,21.2109698 L56.5099209,24.6289058 L49.4383615,24.6289058 L49.4383615,21.2109698 C49.4383615,20.5751045 49.1223804,19.9805001 48.5949969,19.6232256 L42.8547281,15.7376664 L42.8547281,1.91943044 C42.8547281,0.859761545 41.9927575,0.000319851765 40.9299705,0.000319851765 L31.9477683,0.000319851765 C30.8849813,0.000319851765 30.0230107,0.859761545 30.0230107,1.91943044 L30.0230107,7.05081231 L29.0747468,6.40886982 C28.4219332,5.96715453 27.5650953,5.96715453 26.9122816,6.40886982 L7.39267317,19.6232256 C6.86496879,19.9805001 6.54930855,20.5751045 6.54930855,21.2109698 L6.54930855,24.6289058 L1.92475761,24.6289058 C0.861970615,24.6289058 0,25.4883475 0,26.5480164 C0,27.6076853 0.861970615,28.467127 1.92475761,28.467127 L6.54962934,28.467127 L6.54962934,83.1617788 L1.92475761,83.1617788 C0.861649822,83.1617788 0,84.0212205 0,85.0808894 C0,86.1405583 0.861649822,87 1.92475761,87 L154.075242,87 C155.138029,87 156,86.1405583 156,85.0808894 C156,84.0212205 155.13835,83.1617788 154.075242,83.1617788 Z M134.280714,3.83854103 L139.413401,3.83854103 L139.413401,13.4619211 L134.280714,9.98705152 L134.280714,3.83854103 Z M106.469571,28.467127 L106.469571,83.1617788 L99.3980115,83.1617788 L99.3980115,28.467127 L106.469571,28.467127 Z M84.0766202,3.83854103 L89.2093071,3.83854103 L89.2093071,13.2968776 L84.0766202,9.82200801 L84.0766202,3.83854103 Z M56.5096001,28.467127 L56.5096001,83.1617788 L49.4380407,83.1617788 L49.4380407,28.467127 L56.5096001,28.467127 Z M33.8725259,3.83854103 L39.0052129,3.83854103 L39.0052129,13.1315142 L33.8725259,9.65664464 L33.8725259,3.83854103 Z M31.8419067,83.1617788 L24.1428762,83.1617788 L24.1428762,69.0883011 L31.8419067,69.0883011 L31.8419067,83.1617788 Z M35.6914219,83.1617788 L35.6914219,67.1691906 C35.6914219,66.1095217 34.8294513,65.25008 33.7666643,65.25008 L22.2181186,65.25008 C21.1553316,65.25008 20.293361,66.1095217 20.293361,67.1691906 L20.293361,83.1617788 L10.3991446,83.1617788 L10.3991446,22.2277786 L27.9936746,10.316179 L45.5885255,22.2277786 L45.5885255,83.1617788 L35.6914219,83.1617788 Z M81.8021983,83.1617788 L74.1031678,83.1617788 L74.1031678,69.0883011 L81.8021983,69.0883011 L81.8021983,83.1617788 Z M85.6517135,83.1617788 L85.6517135,67.1691906 C85.6517135,66.1095217 84.7897429,65.25008 83.7269559,65.25008 L72.1784102,65.25008 C71.1156232,65.25008 70.2536526,66.1095217 70.2536526,67.1691906 L70.2536526,83.1617788 L60.3591154,83.1617788 L60.3591154,22.2277786 L77.9539662,10.316179 L95.5488171,22.2277786 L95.5488171,83.1617788 L85.6517135,83.1617788 Z M131.762169,83.1617788 L124.063139,83.1617788 L124.063139,69.0883011 L131.762169,69.0883011 L131.762169,83.1617788 Z M135.611684,83.1617788 L135.611684,67.1691906 C135.611684,66.1095217 134.749714,65.25008 133.686927,65.25008 L122.138381,65.25008 C121.075594,65.25008 120.213623,66.1095217 120.213623,67.1691906 L120.213623,83.1617788 L110.319086,83.1617788 L110.319086,22.2277786 L127.913937,10.316179 L145.508788,22.2277786 L145.508788,83.1617788 L135.611684,83.1617788 Z" id="Shape"></path>
                </g>
                <g id="terraced-houses" transform="translate(172.000000, 0.000000)" fill="#C0C0C0">
                    <path d="M33.93,23.3035714 L22.23,23.3035714 C21.153275,23.3035714 20.28,24.1732478 20.28,25.2455357 L20.28,36.8973214 C20.28,37.9696094 21.153275,38.8392857 22.23,38.8392857 L33.93,38.8392857 C35.006725,38.8392857 35.88,37.9696094 35.88,36.8973214 L35.88,25.2455357 C35.88,24.1729241 35.00705,23.3035714 33.93,23.3035714 Z M31.98,34.9553571 L24.18,34.9553571 L24.18,27.1875 L31.98,27.1875 L31.98,34.9553571 Z" id="Shape"></path>
                    <path d="M33.93,43.5 L22.23,43.5 C21.153275,43.5 20.28,44.3696763 20.28,45.4419643 L20.28,57.09375 C20.28,58.1660379 21.153275,59.0357143 22.23,59.0357143 L33.93,59.0357143 C35.006725,59.0357143 35.88,58.1660379 35.88,57.09375 L35.88,45.4419643 C35.88,44.3693527 35.00705,43.5 33.93,43.5 Z M31.98,55.1517857 L24.18,55.1517857 L24.18,47.3839286 L31.98,47.3839286 L31.98,55.1517857 Z" id="Shape"></path>
                    <path d="M83.85,23.3035714 L72.15,23.3035714 C71.073275,23.3035714 70.2,24.1732478 70.2,25.2455357 L70.2,36.8973214 C70.2,37.9696094 71.073275,38.8392857 72.15,38.8392857 L83.85,38.8392857 C84.926725,38.8392857 85.8,37.9696094 85.8,36.8973214 L85.8,25.2455357 C85.8,24.1729241 84.92705,23.3035714 83.85,23.3035714 Z M81.9,34.9553571 L74.1,34.9553571 L74.1,27.1875 L81.9,27.1875 L81.9,34.9553571 Z" id="Shape"></path>
                    <path d="M83.85,43.5 L72.15,43.5 C71.073275,43.5 70.2,44.3696763 70.2,45.4419643 L70.2,57.09375 C70.2,58.1660379 71.073275,59.0357143 72.15,59.0357143 L83.85,59.0357143 C84.926725,59.0357143 85.8,58.1660379 85.8,57.09375 L85.8,45.4419643 C85.8,44.3693527 84.92705,43.5 83.85,43.5 Z M81.9,55.1517857 L74.1,55.1517857 L74.1,47.3839286 L81.9,47.3839286 L81.9,55.1517857 Z" id="Shape"></path>
                    <path d="M133.77,23.3035714 L122.07,23.3035714 C120.993275,23.3035714 120.12,24.1732478 120.12,25.2455357 L120.12,36.8973214 C120.12,37.9696094 120.993275,38.8392857 122.07,38.8392857 L133.77,38.8392857 C134.846725,38.8392857 135.72,37.9696094 135.72,36.8973214 L135.72,25.2455357 C135.72,24.1729241 134.846725,23.3035714 133.77,23.3035714 Z M131.82,34.9553571 L124.02,34.9553571 L124.02,27.1875 L131.82,27.1875 L131.82,34.9553571 Z" id="Shape"></path>
                    <path d="M133.77,43.5 L122.07,43.5 C120.993275,43.5 120.12,44.3696763 120.12,45.4419643 L120.12,57.09375 C120.12,58.1660379 120.993275,59.0357143 122.07,59.0357143 L133.77,59.0357143 C134.846725,59.0357143 135.72,58.1660379 135.72,57.09375 L135.72,45.4419643 C135.72,44.3693527 134.846725,43.5 133.77,43.5 Z M131.82,55.1517857 L124.02,55.1517857 L124.02,47.3839286 L131.82,47.3839286 L131.82,55.1517857 Z" id="Shape"></path>
                    <path d="M154.075242,83.1617788 L149.357982,83.1617788 L149.357982,28.467127 L154.075242,28.467127 C155.138029,28.467127 156,27.6076853 156,26.5480164 C156,25.4883475 155.138029,24.6289058 154.075242,24.6289058 L149.357982,24.6289058 L149.357982,21.2109698 C149.357982,20.5751045 149.042001,19.9805001 148.514618,19.6232256 L143.262917,16.0680733 L143.262917,1.91943044 C143.262917,0.859761545 142.400946,0.000319851765 141.338159,0.000319851765 L132.355957,0.000319851765 C131.29317,0.000319851765 130.431199,0.859761545 130.431199,1.91943044 L130.431199,7.38121919 L128.995009,6.40886982 C128.342196,5.96715453 127.485358,5.96715453 126.832544,6.40886982 L107.312936,19.6232256 C106.785231,19.9805001 106.469571,20.5751045 106.469571,21.2109698 L106.469571,24.6289058 L99.3980115,24.6289058 L99.3980115,21.2109698 C99.3980115,20.5751045 99.0820305,19.9805001 98.5546469,19.6232256 L93.0591431,15.9027099 L93.0591431,1.91911059 C93.0591431,0.859441693 92.1971725,0 91.1343855,0 L82.1521833,0 C81.0893964,0 80.2274257,0.859441693 80.2274257,1.91911059 L80.2274257,7.21585582 L79.0353592,6.40886982 C78.3825456,5.96715453 77.5257076,5.96715453 76.872894,6.40886982 L57.3532856,19.6232256 C56.8255812,19.9805001 56.5099209,20.5751045 56.5099209,21.2109698 L56.5099209,24.6289058 L49.4383615,24.6289058 L49.4383615,21.2109698 C49.4383615,20.5751045 49.1223804,19.9805001 48.5949969,19.6232256 L42.8547281,15.7376664 L42.8547281,1.91943044 C42.8547281,0.859761545 41.9927575,0.000319851765 40.9299705,0.000319851765 L31.9477683,0.000319851765 C30.8849813,0.000319851765 30.0230107,0.859761545 30.0230107,1.91943044 L30.0230107,7.05081231 L29.0747468,6.40886982 C28.4219332,5.96715453 27.5650953,5.96715453 26.9122816,6.40886982 L7.39267317,19.6232256 C6.86496879,19.9805001 6.54930855,20.5751045 6.54930855,21.2109698 L6.54930855,24.6289058 L1.92475761,24.6289058 C0.861970615,24.6289058 0,25.4883475 0,26.5480164 C0,27.6076853 0.861970615,28.467127 1.92475761,28.467127 L6.54962934,28.467127 L6.54962934,83.1617788 L1.92475761,83.1617788 C0.861649822,83.1617788 0,84.0212205 0,85.0808894 C0,86.1405583 0.861649822,87 1.92475761,87 L154.075242,87 C155.138029,87 156,86.1405583 156,85.0808894 C156,84.0212205 155.13835,83.1617788 154.075242,83.1617788 Z M134.280714,3.83854103 L139.413401,3.83854103 L139.413401,13.4619211 L134.280714,9.98705152 L134.280714,3.83854103 Z M106.469571,28.467127 L106.469571,83.1617788 L99.3980115,83.1617788 L99.3980115,28.467127 L106.469571,28.467127 Z M84.0766202,3.83854103 L89.2093071,3.83854103 L89.2093071,13.2968776 L84.0766202,9.82200801 L84.0766202,3.83854103 Z M56.5096001,28.467127 L56.5096001,83.1617788 L49.4380407,83.1617788 L49.4380407,28.467127 L56.5096001,28.467127 Z M33.8725259,3.83854103 L39.0052129,3.83854103 L39.0052129,13.1315142 L33.8725259,9.65664464 L33.8725259,3.83854103 Z M31.8419067,83.1617788 L24.1428762,83.1617788 L24.1428762,69.0883011 L31.8419067,69.0883011 L31.8419067,83.1617788 Z M35.6914219,83.1617788 L35.6914219,67.1691906 C35.6914219,66.1095217 34.8294513,65.25008 33.7666643,65.25008 L22.2181186,65.25008 C21.1553316,65.25008 20.293361,66.1095217 20.293361,67.1691906 L20.293361,83.1617788 L10.3991446,83.1617788 L10.3991446,22.2277786 L27.9936746,10.316179 L45.5885255,22.2277786 L45.5885255,83.1617788 L35.6914219,83.1617788 Z M81.8021983,83.1617788 L74.1031678,83.1617788 L74.1031678,69.0883011 L81.8021983,69.0883011 L81.8021983,83.1617788 Z M85.6517135,83.1617788 L85.6517135,67.1691906 C85.6517135,66.1095217 84.7897429,65.25008 83.7269559,65.25008 L72.1784102,65.25008 C71.1156232,65.25008 70.2536526,66.1095217 70.2536526,67.1691906 L70.2536526,83.1617788 L60.3591154,83.1617788 L60.3591154,22.2277786 L77.9539662,10.316179 L95.5488171,22.2277786 L95.5488171,83.1617788 L85.6517135,83.1617788 Z M131.762169,83.1617788 L124.063139,83.1617788 L124.063139,69.0883011 L131.762169,69.0883011 L131.762169,83.1617788 Z M135.611684,83.1617788 L135.611684,67.1691906 C135.611684,66.1095217 134.749714,65.25008 133.686927,65.25008 L122.138381,65.25008 C121.075594,65.25008 120.213623,66.1095217 120.213623,67.1691906 L120.213623,83.1617788 L110.319086,83.1617788 L110.319086,22.2277786 L127.913937,10.316179 L145.508788,22.2277786 L145.508788,83.1617788 L135.611684,83.1617788 Z" id="Shape"></path>
                </g>
                <g id="terraced-houses" fill="#F7C752">
                    <path d="M33.93,23.3035714 L22.23,23.3035714 C21.153275,23.3035714 20.28,24.1732478 20.28,25.2455357 L20.28,36.8973214 C20.28,37.9696094 21.153275,38.8392857 22.23,38.8392857 L33.93,38.8392857 C35.006725,38.8392857 35.88,37.9696094 35.88,36.8973214 L35.88,25.2455357 C35.88,24.1729241 35.00705,23.3035714 33.93,23.3035714 Z M31.98,34.9553571 L24.18,34.9553571 L24.18,27.1875 L31.98,27.1875 L31.98,34.9553571 Z" id="Shape"></path>
                    <path d="M33.93,43.5 L22.23,43.5 C21.153275,43.5 20.28,44.3696763 20.28,45.4419643 L20.28,57.09375 C20.28,58.1660379 21.153275,59.0357143 22.23,59.0357143 L33.93,59.0357143 C35.006725,59.0357143 35.88,58.1660379 35.88,57.09375 L35.88,45.4419643 C35.88,44.3693527 35.00705,43.5 33.93,43.5 Z M31.98,55.1517857 L24.18,55.1517857 L24.18,47.3839286 L31.98,47.3839286 L31.98,55.1517857 Z" id="Shape"></path>
                    <path d="M83.85,23.3035714 L72.15,23.3035714 C71.073275,23.3035714 70.2,24.1732478 70.2,25.2455357 L70.2,36.8973214 C70.2,37.9696094 71.073275,38.8392857 72.15,38.8392857 L83.85,38.8392857 C84.926725,38.8392857 85.8,37.9696094 85.8,36.8973214 L85.8,25.2455357 C85.8,24.1729241 84.92705,23.3035714 83.85,23.3035714 Z M81.9,34.9553571 L74.1,34.9553571 L74.1,27.1875 L81.9,27.1875 L81.9,34.9553571 Z" id="Shape"></path>
                    <path d="M83.85,43.5 L72.15,43.5 C71.073275,43.5 70.2,44.3696763 70.2,45.4419643 L70.2,57.09375 C70.2,58.1660379 71.073275,59.0357143 72.15,59.0357143 L83.85,59.0357143 C84.926725,59.0357143 85.8,58.1660379 85.8,57.09375 L85.8,45.4419643 C85.8,44.3693527 84.92705,43.5 83.85,43.5 Z M81.9,55.1517857 L74.1,55.1517857 L74.1,47.3839286 L81.9,47.3839286 L81.9,55.1517857 Z" id="Shape"></path>
                    <path d="M133.77,23.3035714 L122.07,23.3035714 C120.993275,23.3035714 120.12,24.1732478 120.12,25.2455357 L120.12,36.8973214 C120.12,37.9696094 120.993275,38.8392857 122.07,38.8392857 L133.77,38.8392857 C134.846725,38.8392857 135.72,37.9696094 135.72,36.8973214 L135.72,25.2455357 C135.72,24.1729241 134.846725,23.3035714 133.77,23.3035714 Z M131.82,34.9553571 L124.02,34.9553571 L124.02,27.1875 L131.82,27.1875 L131.82,34.9553571 Z" id="Shape"></path>
                    <path d="M133.77,43.5 L122.07,43.5 C120.993275,43.5 120.12,44.3696763 120.12,45.4419643 L120.12,57.09375 C120.12,58.1660379 120.993275,59.0357143 122.07,59.0357143 L133.77,59.0357143 C134.846725,59.0357143 135.72,58.1660379 135.72,57.09375 L135.72,45.4419643 C135.72,44.3693527 134.846725,43.5 133.77,43.5 Z M131.82,55.1517857 L124.02,55.1517857 L124.02,47.3839286 L131.82,47.3839286 L131.82,55.1517857 Z" id="Shape"></path>
                    <path d="M154.075242,83.1617788 L149.357982,83.1617788 L149.357982,28.467127 L154.075242,28.467127 C155.138029,28.467127 156,27.6076853 156,26.5480164 C156,25.4883475 155.138029,24.6289058 154.075242,24.6289058 L149.357982,24.6289058 L149.357982,21.2109698 C149.357982,20.5751045 149.042001,19.9805001 148.514618,19.6232256 L143.262917,16.0680733 L143.262917,1.91943044 C143.262917,0.859761545 142.400946,0.000319851765 141.338159,0.000319851765 L132.355957,0.000319851765 C131.29317,0.000319851765 130.431199,0.859761545 130.431199,1.91943044 L130.431199,7.38121919 L128.995009,6.40886982 C128.342196,5.96715453 127.485358,5.96715453 126.832544,6.40886982 L107.312936,19.6232256 C106.785231,19.9805001 106.469571,20.5751045 106.469571,21.2109698 L106.469571,24.6289058 L99.3980115,24.6289058 L99.3980115,21.2109698 C99.3980115,20.5751045 99.0820305,19.9805001 98.5546469,19.6232256 L93.0591431,15.9027099 L93.0591431,1.91911059 C93.0591431,0.859441693 92.1971725,0 91.1343855,0 L82.1521833,0 C81.0893964,0 80.2274257,0.859441693 80.2274257,1.91911059 L80.2274257,7.21585582 L79.0353592,6.40886982 C78.3825456,5.96715453 77.5257076,5.96715453 76.872894,6.40886982 L57.3532856,19.6232256 C56.8255812,19.9805001 56.5099209,20.5751045 56.5099209,21.2109698 L56.5099209,24.6289058 L49.4383615,24.6289058 L49.4383615,21.2109698 C49.4383615,20.5751045 49.1223804,19.9805001 48.5949969,19.6232256 L42.8547281,15.7376664 L42.8547281,1.91943044 C42.8547281,0.859761545 41.9927575,0.000319851765 40.9299705,0.000319851765 L31.9477683,0.000319851765 C30.8849813,0.000319851765 30.0230107,0.859761545 30.0230107,1.91943044 L30.0230107,7.05081231 L29.0747468,6.40886982 C28.4219332,5.96715453 27.5650953,5.96715453 26.9122816,6.40886982 L7.39267317,19.6232256 C6.86496879,19.9805001 6.54930855,20.5751045 6.54930855,21.2109698 L6.54930855,24.6289058 L1.92475761,24.6289058 C0.861970615,24.6289058 0,25.4883475 0,26.5480164 C0,27.6076853 0.861970615,28.467127 1.92475761,28.467127 L6.54962934,28.467127 L6.54962934,83.1617788 L1.92475761,83.1617788 C0.861649822,83.1617788 0,84.0212205 0,85.0808894 C0,86.1405583 0.861649822,87 1.92475761,87 L154.075242,87 C155.138029,87 156,86.1405583 156,85.0808894 C156,84.0212205 155.13835,83.1617788 154.075242,83.1617788 Z M134.280714,3.83854103 L139.413401,3.83854103 L139.413401,13.4619211 L134.280714,9.98705152 L134.280714,3.83854103 Z M106.469571,28.467127 L106.469571,83.1617788 L99.3980115,83.1617788 L99.3980115,28.467127 L106.469571,28.467127 Z M84.0766202,3.83854103 L89.2093071,3.83854103 L89.2093071,13.2968776 L84.0766202,9.82200801 L84.0766202,3.83854103 Z M56.5096001,28.467127 L56.5096001,83.1617788 L49.4380407,83.1617788 L49.4380407,28.467127 L56.5096001,28.467127 Z M33.8725259,3.83854103 L39.0052129,3.83854103 L39.0052129,13.1315142 L33.8725259,9.65664464 L33.8725259,3.83854103 Z M31.8419067,83.1617788 L24.1428762,83.1617788 L24.1428762,69.0883011 L31.8419067,69.0883011 L31.8419067,83.1617788 Z M35.6914219,83.1617788 L35.6914219,67.1691906 C35.6914219,66.1095217 34.8294513,65.25008 33.7666643,65.25008 L22.2181186,65.25008 C21.1553316,65.25008 20.293361,66.1095217 20.293361,67.1691906 L20.293361,83.1617788 L10.3991446,83.1617788 L10.3991446,22.2277786 L27.9936746,10.316179 L45.5885255,22.2277786 L45.5885255,83.1617788 L35.6914219,83.1617788 Z M81.8021983,83.1617788 L74.1031678,83.1617788 L74.1031678,69.0883011 L81.8021983,69.0883011 L81.8021983,83.1617788 Z M85.6517135,83.1617788 L85.6517135,67.1691906 C85.6517135,66.1095217 84.7897429,65.25008 83.7269559,65.25008 L72.1784102,65.25008 C71.1156232,65.25008 70.2536526,66.1095217 70.2536526,67.1691906 L70.2536526,83.1617788 L60.3591154,83.1617788 L60.3591154,22.2277786 L77.9539662,10.316179 L95.5488171,22.2277786 L95.5488171,83.1617788 L85.6517135,83.1617788 Z M131.762169,83.1617788 L124.063139,83.1617788 L124.063139,69.0883011 L131.762169,69.0883011 L131.762169,83.1617788 Z M135.611684,83.1617788 L135.611684,67.1691906 C135.611684,66.1095217 134.749714,65.25008 133.686927,65.25008 L122.138381,65.25008 C121.075594,65.25008 120.213623,66.1095217 120.213623,67.1691906 L120.213623,83.1617788 L110.319086,83.1617788 L110.319086,22.2277786 L127.913937,10.316179 L145.508788,22.2277786 L145.508788,83.1617788 L135.611684,83.1617788 Z" id="Shape"></path>
                </g>
            </g>
        </g>
    </g>
</svg>