<?xml version="1.0" encoding="UTF-8"?>
<svg width="300px" height="300px" viewBox="0 0 300 300" version="1.1" xmlns="http://www.w3.org/2000/svg" xmlns:xlink="http://www.w3.org/1999/xlink">
    <!-- Generator: Sketch 48.2 (47327) - http://www.bohemiancoding.com/sketch -->
    <title>Social Media</title>
    <desc>Created with Sketch.</desc>
    <defs></defs>
    <g id="Page-1" stroke="none" stroke-width="1" fill="none" fill-rule="evenodd">
        <g id="Social-Media">
            <circle id="Oval" fill="#489FD6" cx="150" cy="150" r="150"></circle>
            <g id="sharing-interface" transform="translate(62.000000, 77.000000)" fill="#FFFFFF" fill-rule="nonzero">
                <path d="M120.996,94.776 C113.865,94.776 107.451,97.776 102.897,102.57 L49.686,76.512 C49.869,75.294 49.995,74.052 49.995,72.774 C49.995,71.532 49.875,70.32 49.701,69.129 L102.834,43.362 C107.391,48.189 113.832,51.219 120.996,51.219 C134.805,51.219 145.995,40.026 145.995,26.22 C145.995,12.411 134.805,1.221 120.996,1.221 C107.187,1.221 95.997,12.411 95.997,26.22 C95.997,27.462 96.117,28.671 96.291,29.865 L43.164,55.632 C38.607,50.805 32.166,47.775 25.002,47.775 C11.19,47.775 0,58.968 0,72.774 C0,86.583 11.19,97.773 24.999,97.773 C32.13,97.773 38.544,94.773 43.098,89.985 L96.306,116.04 C96.12,117.258 95.994,118.5 95.994,119.775 C95.994,133.587 107.184,144.774 120.993,144.774 C134.802,144.774 145.992,133.587 145.992,119.775 C145.995,105.966 134.805,94.776 120.996,94.776 Z" id="Shape"></path>
            </g>
        </g>
    </g>
</svg>