<?xml version="1.0" encoding="UTF-8"?>
<svg width="300px" height="300px" viewBox="0 0 300 300" version="1.1" xmlns="http://www.w3.org/2000/svg" xmlns:xlink="http://www.w3.org/1999/xlink">
    <!-- Generator: Sketch 48.2 (47327) - http://www.bohemiancoding.com/sketch -->
    <title>Sticker</title>
    <desc>Created with Sketch.</desc>
    <defs></defs>
    <g id="Page-1" stroke="none" stroke-width="1" fill="none" fill-rule="evenodd">
        <g id="Sticker">
            <circle id="Oval-Copy" fill="#489FD6" cx="150" cy="150" r="150"></circle>
            <g id="sticker" transform="translate(46.000000, 44.000000)" fill="#FFFFFF" fill-rule="nonzero">
                <path d="M104.5,43.5 C69.6640617,43.5 41.3489209,71.7474012 41.3489209,106.5 C41.3489209,141.20894 69.6640617,169.5 104.5,169.5 C139.335938,169.5 167.651079,141.20894 167.651079,106.5 C167.651079,71.7474012 139.335938,43.5 104.5,43.5 Z M104.5,158.803534 C75.6159305,158.803534 52.0710376,135.358628 52.0710376,106.5 C52.0710376,77.6850312 75.5721668,54.1964657 104.5,54.1964657 C133.427833,54.1964657 156.928962,77.6850312 156.928962,106.5 C156.928962,135.314969 133.384069,158.803534 104.5,158.803534 Z" id="Shape"></path>
                <path d="M201.776975,109.877839 C199.987271,107.437078 199.943619,104.081031 201.733324,101.596685 L205.443686,96.3228975 C208.368325,92.1823204 209.415957,86.9521179 208.237371,81.9834254 C207.058785,77.014733 203.828587,72.7869859 199.332501,70.3898097 L193.657829,67.3388582 C190.951447,65.9005525 189.510953,62.936771 189.991118,59.9294045 L191.082401,53.5659914 C191.911776,48.5537139 190.558585,43.4106814 187.372038,39.4444444 C184.14184,35.4782075 179.383846,33.0810313 174.320292,32.8631062 L167.859896,32.6015961 C164.804304,32.470841 162.185224,30.422345 161.355849,27.5021486 L159.478842,21.3566605 C157.296276,13.8164518 150.268413,8.54266421 142.367523,8.54266421 C139.966701,8.54266421 137.565878,9.02209945 135.33966,9.98096992 L129.40308,12.5089012 C126.653047,13.6856967 123.291895,12.9447514 121.327585,10.7219153 L117.006104,5.92756292 C113.644952,2.17925107 108.799655,0 103.779753,0 C98.6288969,0 93.7399487,2.2228361 90.3351454,6.10190301 L86.1446183,10.9834254 C84.1803088,13.2498465 80.8628082,14.0343769 78.0691234,12.9011664 L72.0888921,10.4604052 C69.9063259,9.58870473 67.6364571,9.10926949 65.3229369,9.10926949 C57.3347446,9.10926949 50.2632302,14.4702271 48.1679666,22.1847759 L46.465565,28.417434 C45.6798412,31.3376304 43.0607618,33.4297115 40.0051691,33.6040516 L33.5884245,33.9963168 C28.5248709,34.2578269 23.7668766,36.7421731 20.6239813,40.7519951 C17.481086,44.7618171 16.2151976,49.9484346 17.1318754,54.9171271 L18.3104612,61.2369552 C18.8779284,64.2443217 17.4374347,67.2516882 14.7747039,68.7335789 L9.14368317,71.8717004 C4.69124814,74.3560467 1.50470151,78.6273788 0.413418412,83.5960712 C-0.677864683,88.5647637 0.413418412,93.7949662 3.42535975,97.8919583 L7.22302492,103.078576 C9.0127292,105.519337 9.05638052,108.875384 7.26667625,111.35973 L3.55631373,116.633517 C0.631675031,120.774095 -0.41595674,126.004297 0.762629002,130.97299 C1.94121474,135.941682 5.17141271,140.169429 9.66749906,142.566605 L15.3421711,145.617557 C18.0485532,147.055862 19.4890469,150.019644 19.0088823,153.02701 L17.9175993,159.390424 C17.0882241,164.402701 18.4414151,169.545734 21.6279618,173.511971 C24.8581597,177.478207 29.616154,179.875384 34.6797076,180.093309 L41.1401035,180.354819 C44.1956962,180.485574 46.8147756,182.53407 47.6441508,185.454266 L49.433855,191.643339 C51.6164212,199.183548 58.6442844,204.457336 66.545174,204.457336 C68.9459968,204.457336 71.3468196,203.977901 73.5730371,203.01903 L79.5096171,200.491099 C82.2596505,199.314303 85.6208025,200.055249 87.585112,202.278085 L91.9065931,207.072437 C95.267745,210.820749 100.113042,213 105.132944,213 C110.2838,213 115.172749,210.777164 118.577552,206.898097 L122.81173,202.016575 C124.77604,199.750153 128.093541,198.965623 130.887225,200.098834 L136.867457,202.539595 C139.050023,203.411295 141.319892,203.890731 143.633412,203.890731 C151.621604,203.890731 158.693118,198.529773 160.788382,190.815224 L162.490784,184.582566 C163.276507,181.66237 165.895587,179.570289 168.95118,179.395948 L175.411576,179.003683 C180.51878,178.698588 185.233123,176.257827 188.376019,172.248005 C191.518914,168.238183 192.784802,163.09515 191.868125,158.082873 L190.689539,151.763045 C190.122072,148.755678 191.562565,145.748312 194.225296,144.266421 L199.856317,141.1283 C204.308752,138.643953 207.495298,134.372621 208.586582,129.403929 C209.677865,124.435236 208.586582,119.205034 205.57464,115.108042 L201.776975,109.877839 Z M198.153915,127.093923 C197.717402,129.098834 196.451514,130.755064 194.661809,131.75752 L189.030789,134.895641 C182.352136,138.600368 178.772727,146.140577 180.16957,153.637201 L181.348156,159.957029 C181.741017,162.005525 181.217202,164.010436 179.951313,165.623082 C178.685425,167.235727 176.852069,168.194598 174.756806,168.325353 L168.340061,168.717618 C160.701079,169.153468 154.197032,174.383671 152.189071,181.74954 L150.48667,187.938613 C149.657294,191.033149 146.819958,193.168815 143.633412,193.168815 C142.716734,193.168815 141.800056,192.994475 140.92703,192.645795 L134.946798,190.205034 C132.764232,189.333333 130.494363,188.853898 128.180843,188.853898 C123.029987,188.853898 118.141039,191.076734 114.736235,194.955801 L110.502057,199.793738 C109.148866,201.362799 107.228208,202.2345 105.132944,202.2345 C103.081332,202.2345 101.204325,201.406384 99.851134,199.880909 L95.529653,195.086556 C92.168501,191.338244 87.3232041,189.158993 82.2596505,189.158993 C79.8151764,189.158993 77.4580049,189.638428 75.2317874,190.597299 L69.2952074,193.12523 C68.3785296,193.517495 67.4618518,193.691835 66.5015226,193.691835 C63.3586273,193.691835 60.5649426,191.599754 59.6919161,188.592388 L57.9022118,182.403315 C55.763297,175.081031 49.2155984,169.937999 41.5766168,169.589319 L35.1162208,169.327808 C33.0646086,169.240638 31.1876017,168.325353 29.9217133,166.712707 C28.6121736,165.100061 28.0883577,163.09515 28.4375683,161.090239 L29.5288514,154.726826 C30.7947398,147.186618 27.1280286,139.733579 20.3620734,136.116022 L14.6874013,133.065071 C12.8540457,132.1062 11.5881573,130.449969 11.1079927,128.445058 C10.6278282,126.440147 11.0206901,124.391651 12.2429272,122.735421 L15.9532897,117.461633 C20.3620734,111.228975 20.3184221,102.904236 15.7786844,96.7151627 L11.9810192,91.5285451 C10.7587822,89.8723143 10.3222689,87.8238183 10.8024335,85.8189073 C11.2389467,83.8139963 12.5048351,82.1577655 14.2945394,81.15531 L19.9255601,78.0171885 C26.6042127,74.3124616 30.1836212,66.7722529 28.7867789,59.2756292 L27.6518445,52.9993861 C27.2589825,50.9508901 27.7827984,48.9459791 29.0486868,47.3333333 C30.3145752,45.7206875 32.1479308,44.7618171 34.2431944,44.631062 L40.659939,44.2387968 C48.2989206,43.8029466 54.7593165,38.572744 56.8109288,31.2068754 L58.5133304,24.9742173 C59.3427055,21.8796808 62.1800416,19.7440147 65.3665882,19.7440147 C66.283266,19.7440147 67.1999438,19.9183548 68.0729703,20.267035 L74.0532017,22.7077962 C76.2357678,23.5794966 78.5056367,24.0589319 80.8191568,24.0589319 C85.970013,24.0589319 90.8589613,21.8360958 94.2637646,17.9570289 L98.497943,13.1190915 C99.851134,11.5500307 101.771792,10.6783303 103.867056,10.6783303 C105.918668,10.6783303 107.795675,11.5064457 109.148866,13.0319214 L113.470347,17.8262738 C116.831499,21.5745856 121.676796,23.7538367 126.740349,23.7538367 C129.184824,23.7538367 131.541995,23.2744015 133.768213,22.315531 L139.704793,19.7875998 C140.62147,19.3953346 141.538148,19.2209945 142.498477,19.2209945 C145.641373,19.2209945 148.435057,21.3130755 149.308084,24.320442 L151.097788,30.509515 C153.236703,37.8317986 159.784402,42.9748312 167.423383,43.3235114 L173.883779,43.5850215 C175.935391,43.6721915 177.812398,44.587477 179.121938,46.2001228 C180.431478,47.8127686 180.955294,49.8176796 180.606083,51.8225905 L179.5148,58.1860037 C178.248912,65.7262124 181.915623,73.1792511 188.681578,76.7968079 L194.35625,79.8477594 C196.189606,80.8066298 197.455494,82.4628607 197.935659,84.4677716 C198.415823,86.4726826 198.022961,88.5211786 196.844375,90.1774095 L193.134013,95.4511971 C188.725229,101.683855 188.768881,110.008594 193.308618,116.197667 L197.106283,121.384285 C198.153915,123.040516 198.590428,125.089012 198.153915,127.093923 Z" id="Shape"></path>
                <path d="M120.112328,89.2743431 L96.5399115,112.404651 L88.8876716,104.810272 C86.7767089,102.727243 83.3903729,102.727243 81.2794102,104.810272 C79.1684475,106.893302 79.1684475,110.234828 81.2354318,112.317858 L92.7137915,123.687728 C93.7252945,124.685846 95.0886246,125.25 96.5399115,125.25 C97.9472199,125.25 99.31055,124.685846 100.322053,123.687728 L127.72059,96.8253254 C129.831552,94.7422958 129.831552,91.4007692 127.764568,89.3177396 C125.653605,87.23471 122.223291,87.23471 120.112328,89.2743431 Z" id="Shape"></path>
            </g>
        </g>
    </g>
</svg>