<?xml version="1.0" encoding="UTF-8"?>
<svg width="300px" height="300px" viewBox="0 0 300 300" version="1.1" xmlns="http://www.w3.org/2000/svg" xmlns:xlink="http://www.w3.org/1999/xlink">
    <!-- Generator: Sketch 48.2 (47327) - http://www.bohemiancoding.com/sketch -->
    <title>Website</title>
    <desc>Created with Sketch.</desc>
    <defs></defs>
    <g id="Page-1" stroke="none" stroke-width="1" fill="none" fill-rule="evenodd">
        <g id="Website">
            <circle id="Oval" fill="#489FD6" cx="150" cy="150" r="150"></circle>
            <g id="programming" transform="translate(53.000000, 67.000000)" fill="#FFFFFF" fill-rule="nonzero">
                <path d="M184.605236,0 L9.39476411,0 C4.20556616,0 0,4.19655927 0,9.37359677 L0,119.044679 C0,124.221716 4.20556616,128.418276 9.39476411,128.418276 L74.9223043,128.418276 L74.9223043,149.658846 L49.4235053,149.658846 C44.6317059,149.658846 40.7333485,153.54842 40.7333485,158.329423 C40.7333485,163.110426 44.6317059,167 49.4235053,167 L144.576495,167 C149.368294,167 153.266651,163.110426 153.266651,158.329423 C153.266651,153.54842 149.368294,149.658846 144.576495,149.658846 L119.077696,149.658846 L119.077696,128.418276 L184.605236,128.418276 C189.794434,128.418276 194,124.221716 194,119.044679 L194,9.37359677 C194,4.19655927 189.794434,0 184.605236,0 Z M179.907854,114.357881 L14.0921462,114.357881 L14.0921462,14.0603952 L179.907854,14.0603952 L179.907854,114.357881 Z" id="Shape"></path>
                <path d="M44.3337868,69.0392717 L73.8687323,82.6472188 C74.632341,82.9974369 75.4451092,83.1750973 76.2855002,83.1750973 C77.3801153,83.1750973 78.4466394,82.8670908 79.3741128,82.2826208 C81.0352311,81.2310386 82.0268456,79.4391276 82.0268456,77.4885748 L82.0268456,77.3392103 C82.0268456,75.1353871 80.722952,73.1110797 78.704609,72.181494 L60.2323931,63.6788465 L78.7050772,55.1743434 C80.722952,54.2447577 82.0268456,52.2199865 82.0268456,50.0170911 L82.0268456,49.8691181 C82.0268456,47.9157821 81.0347629,46.1238712 79.3745809,45.075536 C78.4560031,44.4938491 77.3862017,44.1867704 76.2817547,44.1867704 C75.4493228,44.1867704 74.6136137,44.3681417 73.8659231,44.7123296 L44.3333186,58.3184212 C42.3163802,59.2484707 41.0134229,61.2727781 41.0134229,63.4752097 L41.0134229,63.8824832 C41.0129548,66.0821316 42.3154438,68.1059751 44.3337868,69.0392717 Z" id="Shape"></path>
                <path d="M82.4850009,97.7035609 C83.5681387,99.1853742 85.3102912,100.070039 87.1456473,100.070039 L87.2939256,100.070039 C89.8132448,100.070039 92.0209441,98.4578787 92.7882256,96.0626962 L112.350137,35.4725775 C112.911241,33.7234825 112.599621,31.7936901 111.516483,30.3085828 C110.433345,28.8267695 108.691193,27.9416342 106.855837,27.9416342 L106.708029,27.9416342 C104.187768,27.9416342 101.978186,29.5537944 101.210434,31.948977 L81.6461693,92.5442718 C81.0897726,94.2947785 81.4032753,96.2226887 82.4850009,97.7035609 Z" id="Shape"></path>
                <path d="M111.322616,50.0174856 C111.322616,52.2189632 112.625075,54.2432465 114.644308,55.176532 L133.116103,63.6790784 L114.644308,72.1816248 C112.626011,73.1111995 111.322148,75.1354827 111.322148,77.3392797 L111.322148,77.4886425 C111.322148,79.4391721 112.313271,81.2310617 113.976224,82.2830953 C114.900399,82.8666306 115.967836,83.1750973 117.06383,83.1750973 C117.902798,83.1750973 118.715079,82.9974391 119.48382,82.6453696 L149.016687,69.0380483 C151.033111,68.1061544 152.33557,66.082335 152.33557,63.8822489 L152.33557,63.4749802 C152.33557,61.2725748 151.032643,59.2482915 149.014814,58.3182531 L119.482416,44.7113956 C118.737551,44.3686034 117.903266,44.1867704 117.070385,44.1867704 C115.966431,44.1867704 114.896186,44.4938455 113.978565,45.07367 C112.314676,46.1238481 111.322616,47.9157377 111.322616,49.8690505 L111.322616,50.0174856 Z" id="Shape"></path>
            </g>
        </g>
    </g>
</svg>